<svg width="50" height="50" viewBox="0 0 50 50" fill="none" xmlns="http://www.w3.org/2000/svg">
<path d="M44.2953 22.912C44.1479 21.0798 43.7447 19.2973 43.0907 17.589L47.5967 13.9801L40.2745 4.83734L35.7959 8.42387C34.2497 7.38226 32.5775 6.57797 30.8038 6.02347V0.332458H19.0898V6.06058C17.2352 6.65404 15.4946 7.52191 13.8918 8.65131L9.36631 5.13412L2.17783 14.3832L6.7834 17.9619C6.16846 19.6741 5.80234 21.4545 5.69014 23.28L0 24.6417L2.72549 36.0335L8.52588 34.6464C8.90811 35.268 9.78105 34.0941 0.106445 43.7687L6.00537 49.6676L10.8354 44.8375L19.9675 49.1414L22.5367 43.6906C24.3114 43.919 26.0821 43.9004 27.8227 43.6466L30.4544 49.0252L40.9765 43.877L38.3516 38.5121C39.6519 37.2752 40.7666 35.8745 41.6773 34.3292L47.4416 35.6198L50 24.1888L44.2953 22.912ZM6.00537 45.5258L4.24824 43.7687C6.6752 41.3417 15.0205 32.9964 17.7349 30.2821C18.2452 30.9085 18.8605 31.493 19.5505 31.9806C18.0568 33.4743 7.53066 44.0004 6.00537 45.5258ZM27.5609 28.1492L31.0487 24.6623C30.9199 30.1027 24.2852 32.7589 20.4369 28.9106C16.5602 25.0337 19.2698 18.4269 24.6852 18.2988L21.1983 21.7856L27.5609 28.1492ZM24.8326 33.6547C31.2962 33.6547 35.7186 27.1326 33.3291 21.1296L32.5071 19.0621L27.5609 24.0074L25.3392 21.7856L30.2854 16.8404L28.2179 16.0174C20.8969 13.1054 13.5416 20.2238 16.2355 27.6464C16.2257 27.6367 16.2952 27.5807 14.8464 29.0296C11.5721 21.7242 16.9355 13.3661 25.0082 13.3661C31.1443 13.3661 36.1364 18.3582 36.1364 24.4944C36.1364 32.3775 28.1209 37.7579 20.8546 34.8183C23.2399 32.433 21.4555 33.6547 24.8326 33.6547ZM45.2236 32.1221L40.1417 30.9849C38.584 34.0152 37.8506 35.1451 34.7328 37.7809L37.059 42.5338L31.7975 45.1079L29.4693 40.3501C25.42 41.1883 24.1334 41.0433 20.8391 40.4244L18.5666 45.2437L13.2689 42.7466C13.694 41.8449 12.8172 42.8558 18.6466 37.0263C27.8912 41.7431 39.0649 35.0237 39.0649 24.4944C39.0649 16.7437 32.759 10.4376 25.0082 10.4376C14.3261 10.4376 7.59219 21.9248 12.6627 31.2123L10.9231 32.9519C10.6734 32.5364 10.5802 32.3545 10.0026 31.2817L4.89238 32.5048L3.52969 26.8079L8.57842 25.6004C8.58916 21.3778 9.0123 20.1122 10.3355 17.0141L6.2874 13.8679L9.88164 9.24281L13.8868 12.3558C17.3235 9.61918 18.6898 9.15062 22.0183 8.29789V3.26088H27.8752V8.27836C32.0037 9.30502 33.1472 10.0437 35.867 12.1186L39.8185 8.95385L43.4801 13.5252L39.513 16.7027C41.2435 20.5278 41.3761 21.8603 41.4517 25.2763L46.5033 26.4067L45.2236 32.1221Z" fill="#51B9D1"/>
</svg>
