<svg width="50" height="50" viewBox="0 0 50 50" fill="none" xmlns="http://www.w3.org/2000/svg">
<g clip-path="url(#clip0)">
<path d="M43.7223 9.55018L29.0241 1.07352C26.5421 -0.357928 23.458 -0.357831 20.9759 1.07352L6.27783 9.55018C3.79092 10.9843 2.24609 13.6588 2.24609 16.5299V33.47C2.24609 36.3411 3.79092 39.0156 6.27773 40.4497L20.9759 48.9263C23.4584 50.3581 26.5424 50.3576 29.0241 48.9263L43.7222 40.4497C46.2091 39.0156 47.7539 36.3411 47.7539 33.47V16.5299C47.7539 13.6589 46.2091 10.9844 43.7223 9.55018ZM43.8477 33.47C43.8477 34.9489 43.052 36.3265 41.7709 37.0652L27.0728 45.5419C25.7941 46.2794 24.2058 46.2794 22.9271 45.5419L8.229 37.0652C6.94805 36.3264 6.15234 34.9489 6.15234 33.47V16.5299C6.15234 15.0511 6.94805 13.6734 8.2291 12.9347L22.9271 4.45809C24.2059 3.72059 25.7947 3.72088 27.0729 4.45809L41.771 12.9346C43.052 13.6734 43.8477 15.051 43.8477 16.5299V33.47Z" fill="#51B9D1"/>
<path d="M23.1439 23.5087L15.8899 17.3697C15.0666 16.6729 13.8341 16.7755 13.1373 17.5991C12.4405 18.4228 12.5432 19.6553 13.3667 20.3522L18.8587 25L13.3667 29.6478C12.5432 30.3446 12.4406 31.5772 13.1373 32.4008C13.8357 33.2262 15.0685 33.3253 15.8899 32.6301L23.1439 26.4911C24.0668 25.7102 24.0641 24.2875 23.1439 23.5087Z" fill="#51B9D1"/>
<path d="M35.3717 29.1854H26.5831C25.5044 29.1854 24.63 30.0599 24.63 31.1388C24.63 32.2178 25.5044 33.0923 26.5831 33.0923H35.3717C36.4503 33.0923 37.3248 32.2178 37.3248 31.1388C37.3248 30.0599 36.4504 29.1854 35.3717 29.1854Z" fill="#51B9D1"/>
</g>
<defs>
<clipPath id="clip0">
<rect width="50" height="50" fill="white"/>
</clipPath>
</defs>
</svg>
