<svg width="50" height="50" viewBox="0 0 50 50" fill="none" xmlns="http://www.w3.org/2000/svg">
<path d="M0 4.26434V40.3646C0 43.3263 2.40947 45.7357 5.37109 45.7357H44.6289C47.5905 45.7357 50 43.3263 50 40.3646V4.26434H0ZM47.0703 40.3646C47.0703 41.7108 45.9751 42.806 44.6289 42.806H5.37109C4.0249 42.806 2.92969 41.7108 2.92969 40.3646V14.4857H47.0703V40.3646ZM2.92969 7.19403H7.91016V11.556H2.92969V7.19403ZM47.0703 11.556H10.8398V7.19403H47.0703V11.556Z" fill="#51B9D1"/>
<path d="M16.823 33.4342C17.8482 33.4342 18.7979 33.1062 19.5747 32.5514L24.3057 35.0604C24.2793 35.2624 24.2643 35.468 24.2643 35.6772C24.2643 38.2941 26.3934 40.4232 29.0104 40.4232C31.6274 40.4232 33.7565 38.2941 33.7565 35.6772C33.7565 33.0602 31.6274 30.9311 29.0104 30.9311C27.6566 30.9311 26.4344 31.5018 25.5689 32.4141L21.3319 30.1671C21.4851 29.7013 21.569 29.2045 21.569 28.6882C21.569 28.162 21.4816 27.6562 21.3229 27.1827L25.5863 24.8961C26.4508 25.7977 27.6657 26.3608 29.0104 26.3608C31.6274 26.3608 33.7565 24.2317 33.7565 21.6147C33.7565 18.9978 31.6274 16.8687 29.0104 16.8687C26.3934 16.8687 24.2643 18.9978 24.2643 21.6147C24.2643 21.8325 24.2803 22.0466 24.3089 22.2567L19.5514 24.8083C18.7789 24.2635 17.838 23.9421 16.823 23.9421C14.206 23.9421 12.0769 26.0712 12.0769 28.6882C12.0769 31.3051 14.206 33.4342 16.823 33.4342ZM18.6394 28.6881C18.6394 29.6896 17.8245 30.5045 16.823 30.5045C15.8214 30.5045 15.0065 29.6896 15.0065 28.6881C15.0065 27.6865 15.8214 26.8717 16.823 26.8717C17.8245 26.8717 18.6394 27.6865 18.6394 28.6881ZM29.0104 33.8607C30.012 33.8607 30.8269 34.6756 30.8269 35.6772C30.8269 36.6787 30.012 37.4936 29.0104 37.4936C28.0088 37.4936 27.1939 36.6787 27.1939 35.6772C27.1939 34.6755 28.0088 33.8607 29.0104 33.8607ZM27.1939 21.6146C27.1939 20.6131 28.0088 19.7982 29.0104 19.7982C30.012 19.7982 30.8269 20.6131 30.8269 21.6146C30.8269 22.6162 30.012 23.4311 29.0104 23.4311C28.0088 23.431 27.1939 22.6162 27.1939 21.6146Z" fill="#51B9D1"/>
</svg>
