<svg width="1180" height="692" viewBox="0 0 1180 692" fill="none" xmlns="http://www.w3.org/2000/svg">
<path d="M0.0400391 692C0.0400391 692 39.3209 613.728 188.422 620.789C285.342 625.397 326.718 608.586 343.76 596.273C364.972 580.987 391.791 570.483 421.144 567.026C468.956 561.393 537.191 566.77 606.833 617.259C735.091 710.246 845.72 674.933 850.529 674.933C855.338 674.933 880.99 692 880.99 692H0.0400391Z" fill="white"/>
<path d="M223.413 603.203H160.655V637.431H223.413V603.203Z" fill="#D0D2D4"/>
<path d="M155.188 601.811L190.258 576.065C190.512 575.878 190.814 575.73 191.146 575.628C191.478 575.527 191.834 575.475 192.194 575.475C192.553 575.475 192.91 575.527 193.242 575.628C193.574 575.73 193.876 575.878 194.129 576.065L228.92 601.606C229.303 601.886 229.564 602.243 229.67 602.633C229.777 603.022 229.723 603.425 229.517 603.792C229.311 604.159 228.962 604.473 228.513 604.694C228.064 604.915 227.535 605.033 226.995 605.034L157.153 605.239C156.609 605.244 156.076 605.13 155.621 604.911C155.165 604.692 154.81 604.379 154.599 604.011C154.387 603.643 154.331 603.237 154.436 602.845C154.541 602.453 154.803 602.093 155.188 601.811Z" fill="#A5ABB6"/>
<path opacity="0.05" d="M155.188 601.811L190.258 576.065C190.512 575.878 190.814 575.73 191.146 575.628C191.478 575.527 191.834 575.475 192.194 575.475C192.553 575.475 192.91 575.527 193.242 575.628C193.574 575.73 193.876 575.878 194.129 576.065L228.92 601.606C229.303 601.886 229.564 602.243 229.67 602.633C229.777 603.022 229.723 603.425 229.517 603.792C229.311 604.159 228.962 604.473 228.513 604.694C228.064 604.915 227.535 605.033 226.995 605.034L157.153 605.239C156.609 605.244 156.076 605.13 155.621 604.911C155.165 604.692 154.81 604.379 154.599 604.011C154.387 603.643 154.331 603.237 154.436 602.845C154.541 602.453 154.803 602.093 155.188 601.811Z" fill="black"/>
<path d="M191.226 621.99H192.483C194.362 621.99 196.164 622.538 197.492 623.514C198.821 624.489 199.567 625.812 199.567 627.191V637.446H184.142V627.191C184.142 625.812 184.888 624.489 186.217 623.514C187.545 622.538 189.347 621.99 191.226 621.99Z" fill="white"/>
<path d="M192.204 585.191C194.336 585.191 196.065 583.922 196.065 582.357C196.065 580.791 194.336 579.522 192.204 579.522C190.071 579.522 188.342 580.791 188.342 582.357C188.342 583.922 190.071 585.191 192.204 585.191Z" fill="white"/>
<path d="M180.291 607.575H165.564V615.808H180.291V607.575Z" fill="white"/>
<path d="M173.626 607.575H172.219V615.808H173.626V607.575Z" fill="#EFF7FD"/>
<path d="M219.552 607.575H204.825V615.808H219.552V607.575Z" fill="white"/>
<path d="M212.897 607.575H211.49V615.808H212.897V607.575Z" fill="#EFF7FD"/>
<g opacity="0.2">
<path opacity="0.2" d="M451.515 566.96C451.385 566.938 451.515 566.96 451.515 566.96V566.96Z" fill="url(#paint0_linear)"/>
</g>
<g opacity="0.2">
<path opacity="0.2" d="M452.962 588.231H453.081C453.106 588.224 453.128 588.212 453.144 588.197C453.16 588.181 453.169 588.162 453.171 588.143C453.179 588.114 453.179 588.084 453.171 588.055V587.982C453.071 587.806 452.842 587.572 452.712 587.367L452.652 587.257C452.647 587.208 452.647 587.159 452.652 587.11C452.652 587.11 452.652 587.066 452.652 587.044L454.808 581.851L454.857 581.727C454.857 581.727 457.601 582.591 458.31 584.32C458.718 585.158 458.739 586.072 458.369 586.92L458.32 587.008H458.369V587.96H461.363C461.572 587.887 461.293 587.696 461.013 587.506L460.944 587.455L460.764 587.315C460.713 587.273 460.67 587.226 460.634 587.176L460.584 587.088V587.037H460.495V586.956C460.869 585.684 460.784 584.362 460.248 583.121C459.713 581.88 458.745 580.763 457.442 579.881C458.163 578.3 458.163 576.59 457.442 575.01C457.721 574.863 463.159 571.977 463.119 568.242C463.135 568.042 463.135 567.841 463.119 567.641C463.119 567.641 463.588 567.356 463.119 566.836V566.792H463.069H462.74C462.524 566.807 462.317 566.857 462.131 566.938C462.131 566.938 461.822 567.671 462.131 567.861H462.051C462.051 567.861 458.828 572.988 456.673 573.721L456.524 573.655V572.988C456.526 572.959 456.526 572.93 456.524 572.9C456.526 572.874 456.526 572.847 456.524 572.82C456.766 572.728 456.985 572.606 457.172 572.461C457.244 572.405 457.31 572.347 457.372 572.285L457.452 572.197L457.531 572.095L457.591 571.999C457.634 571.93 457.671 571.86 457.701 571.787V571.699V571.589C457.701 571.589 457.701 571.531 457.701 571.501C457.701 571.465 457.701 571.428 457.701 571.384C457.701 571.174 457.65 570.966 457.551 570.769C457.551 570.715 457.521 570.662 457.462 570.608L457.412 570.527L457.342 570.439C457.396 570.391 457.46 570.349 457.531 570.315C457.67 570.258 457.822 570.223 457.98 570.212H458.369H458.449C458.506 570.195 458.56 570.173 458.609 570.146C458.685 570.1 458.773 570.065 458.868 570.044H458.28H458.19H458.11H458.02H457.94H457.861H457.781H457.701H457.621L457.462 569.992C457.544 570.017 457.632 570.032 457.721 570.036H458.06H458.12L458.18 570V569.941H458.07H458C457.865 569.955 457.727 569.955 457.591 569.941H457.302H457.172L457.052 569.905C457.216 569.948 457.398 569.942 457.556 569.888C457.714 569.834 457.836 569.736 457.896 569.615C457.955 569.495 457.947 569.362 457.873 569.246C457.799 569.13 457.665 569.04 457.501 568.996L457.611 568.945C457.726 568.873 457.798 568.77 457.811 568.659C457.825 568.614 457.825 568.566 457.811 568.52L457.741 568.564H457.681C457.492 568.662 457.263 568.709 457.033 568.696H456.953C456.749 568.658 456.552 568.604 456.364 568.535L456.194 568.491H456.145H456.005H455.925H455.815H455.286C454.541 568.51 453.831 568.729 453.291 569.106C453.166 569.196 453.053 569.294 452.952 569.399C452.879 568.863 453.014 568.322 453.341 567.839H453.281H453.101L453.012 567.964C453.059 567.787 453.15 567.618 453.281 567.465H453.221C453.354 567.357 453.427 567.216 453.427 567.07C453.427 566.924 453.354 566.783 453.221 566.674C452.752 566.154 451.884 566.557 451.884 566.557C451.814 566.727 451.767 566.901 451.744 567.077L451.605 567.033C451.445 567.429 449.669 571.97 452.603 574.871C452.598 574.932 452.598 574.993 452.603 575.054V579.947L450.607 586.656L450.218 587.923L453.022 588.26L452.962 588.231ZM453.461 572.373C453.619 572.469 453.793 572.551 453.979 572.615C453.974 572.661 453.974 572.708 453.979 572.754V573.391L453.81 573.45C453.68 573.135 453.57 572.769 453.451 572.373H453.461Z" fill="url(#paint1_linear)"/>
</g>
<path d="M463.149 568.213C463.149 568.213 463.667 567.89 463.149 567.319C462.63 566.748 461.672 567.195 461.672 567.195C461.672 567.195 461.323 568.022 461.672 568.213C462.021 568.403 463.149 568.213 463.149 568.213Z" fill="#CA7070"/>
<path d="M457.781 589.571H460.175C460.167 589.655 460.183 589.738 460.222 589.817C460.262 589.895 460.324 589.966 460.405 590.025C460.724 590.296 461.403 590.626 461.073 590.758H457.781V589.571Z" fill="#51B9D1"/>
<path opacity="0.2" d="M460.225 590.025C460.145 589.966 460.082 589.895 460.043 589.817C460.003 589.738 459.987 589.655 459.996 589.571H460.165C460.157 589.655 460.173 589.738 460.212 589.817C460.252 589.895 460.314 589.966 460.395 590.025C460.714 590.296 461.393 590.626 461.063 590.758H460.894C461.193 590.626 460.545 590.296 460.225 590.025Z" fill="white"/>
<path d="M449.24 589.212L451.515 589.505C451.453 589.701 451.489 589.906 451.615 590.084C451.864 590.458 452.413 590.941 452.084 591.043L448.841 590.655L449.24 589.212Z" fill="#51B9D1"/>
<path d="M450.338 567.436C450.338 567.436 447.773 573.376 452.074 576.665L453.321 575.933C453.321 575.933 450.777 569.45 452.203 567.927C449.689 567.348 450.338 567.436 450.338 567.436Z" fill="#51B9D1"/>
<path d="M452.114 567.956C452.114 567.956 452.632 567.634 452.114 567.063C451.595 566.491 450.637 566.938 450.637 566.938C450.637 566.938 450.288 567.766 450.637 567.956C450.986 568.147 452.114 567.956 452.114 567.956Z" fill="#CA7070"/>
<path opacity="0.2" d="M451.415 590.055C451.289 589.877 451.254 589.672 451.315 589.476L449.24 589.227L451.515 589.505C451.453 589.701 451.489 589.906 451.615 590.084C451.864 590.458 452.413 590.941 452.084 591.043H451.944C452.164 590.868 451.655 590.414 451.415 590.055Z" fill="white"/>
<path d="M454.149 575.618H454.349C454.966 575.618 455.466 575.25 455.466 574.797V573.786C455.466 573.333 454.966 572.966 454.349 572.966H454.149C453.532 572.966 453.032 573.333 453.032 573.786V574.797C453.032 575.25 453.532 575.618 454.149 575.618Z" fill="#CA7070"/>
<path opacity="0.2" d="M453.141 576.321C453.141 576.321 450.627 569.919 451.994 568.344H452.193H452.253C450.827 569.868 453.371 576.35 453.371 576.35L452.124 577.083L452.014 576.995L453.141 576.321Z" fill="white"/>
<path d="M454.199 573.897C455.687 573.897 456.893 573.011 456.893 571.919C456.893 570.827 455.687 569.941 454.199 569.941C452.711 569.941 451.505 570.827 451.505 571.919C451.505 573.011 452.711 573.897 454.199 573.897Z" fill="#CA7070"/>
<path opacity="0.2" d="M455.157 574.724V573.86C455.166 573.797 455.166 573.733 455.157 573.669C455.684 573.472 456.108 573.152 456.363 572.759C456.617 572.367 456.689 571.924 456.566 571.499C456.443 571.074 456.133 570.69 455.684 570.407C455.234 570.124 454.67 569.958 454.079 569.934H454.229C454.833 569.933 455.42 570.082 455.896 570.356C456.371 570.63 456.707 571.013 456.85 571.444C456.992 571.875 456.934 572.329 456.683 572.733C456.432 573.136 456.003 573.466 455.466 573.669C455.475 573.733 455.475 573.797 455.466 573.86V574.724C455.466 574.961 455.338 575.189 455.11 575.356C454.881 575.524 454.572 575.618 454.249 575.618H454.099C454.394 575.589 454.664 575.483 454.859 575.318C455.053 575.153 455.159 574.942 455.157 574.724Z" fill="white"/>
<path d="M451.465 581.778C451.465 581.778 456.663 582.21 456.853 581.778C457.667 580.018 457.667 578.11 456.853 576.35C456.853 576.09 456.783 575.833 456.648 575.593C456.512 575.353 456.314 575.135 456.064 574.952C455.814 574.768 455.517 574.622 455.19 574.523C454.863 574.424 454.513 574.373 454.159 574.373C453.445 574.373 452.759 574.581 452.254 574.952C451.749 575.323 451.465 575.826 451.465 576.35V581.778Z" fill="#51B9D1"/>
<path d="M451.465 581.778L449.121 589.688H451.465L453.9 583.829C453.9 583.829 456.893 584.788 457.721 586.7C458.223 587.665 458.223 588.731 457.721 589.696H460.245V589.608C460.662 588.198 460.566 586.732 459.967 585.357C459.368 583.983 458.287 582.749 456.833 581.778" fill="#1E2534"/>
<path opacity="0.2" d="M456.504 581.778C457.318 580.018 457.318 578.11 456.504 576.35C456.503 575.848 456.241 575.365 455.772 574.999C455.303 574.633 454.662 574.412 453.979 574.38H454.149C454.864 574.38 455.549 574.588 456.054 574.959C456.559 575.33 456.843 575.833 456.843 576.358C457.657 578.117 457.657 580.025 456.843 581.785C456.773 581.939 456.065 581.983 455.177 581.976C455.945 581.961 456.504 581.91 456.504 581.778Z" fill="white"/>
<path d="M456.893 576.321C456.893 576.321 463.877 572.747 463.149 568.22H461.592C461.592 568.22 457.851 574.153 455.466 574.732C453.081 575.31 456.893 576.321 456.893 576.321Z" fill="#51B9D1"/>
<g opacity="0.2">
<path opacity="0.2" d="M453.85 583.953L451.465 589.718H451.116L453.55 583.858L453.85 583.953Z" fill="white"/>
<path opacity="0.2" d="M456.504 581.807H456.853C458.307 582.778 459.388 584.012 459.987 585.387C460.586 586.761 460.682 588.227 460.265 589.637V589.725H459.916V589.637C460.333 588.227 460.237 586.761 459.638 585.387C459.039 584.012 457.958 582.778 456.504 581.807Z" fill="white"/>
</g>
<path opacity="0.2" d="M462.889 568.264H463.149C463.847 572.798 456.893 576.365 456.893 576.365L456.723 576.314C457.501 575.896 463.538 572.505 462.889 568.264Z" fill="white"/>
<path d="M456.344 571.033C456.195 571.288 456.091 571.556 456.035 571.831C455.965 572.112 455.82 572.38 455.608 572.619C455.395 572.858 455.12 573.063 454.797 573.223C454.426 573.371 454.013 573.453 453.59 573.464C453.271 573.493 452.948 573.473 452.64 573.405C452.333 573.337 452.048 573.222 451.804 573.069C451.522 572.844 451.331 572.564 451.256 572.263C451.121 571.815 451.142 571.35 451.317 570.91C451.491 570.47 451.813 570.069 452.253 569.743C452.701 569.426 453.261 569.207 453.87 569.113C454.478 569.018 455.111 569.051 455.695 569.209C455.906 569.284 456.127 569.343 456.354 569.384C456.534 569.41 456.719 569.402 456.894 569.361C457.068 569.32 457.226 569.248 457.352 569.15C457.38 569.216 457.387 569.287 457.371 569.355C457.355 569.424 457.318 569.488 457.261 569.544C457.205 569.6 457.131 569.645 457.046 569.676C456.961 569.707 456.868 569.722 456.773 569.721C456.972 569.792 457.189 569.833 457.41 569.841C457.631 569.85 457.852 569.827 458.06 569.773C457.943 569.955 457.735 570.098 457.48 570.173C457.224 570.248 456.94 570.249 456.683 570.176C457.173 570.336 457.704 570.416 458.24 570.41C458.13 570.41 457.91 570.564 457.771 570.593C457.598 570.604 457.425 570.604 457.252 570.593C457.059 570.594 456.87 570.636 456.709 570.714C456.548 570.792 456.421 570.903 456.344 571.033Z" fill="#1E2534"/>
<g opacity="0.2">
<path opacity="0.2" d="M456.704 569.729C456.904 569.798 457.122 569.838 457.344 569.846C457.055 569.86 456.765 569.82 456.504 569.729C456.588 569.729 456.672 569.716 456.749 569.691C456.827 569.667 456.896 569.63 456.954 569.585C457.011 569.54 457.055 569.486 457.082 569.427C457.11 569.369 457.121 569.307 457.114 569.245L457.254 569.157C457.281 569.222 457.289 569.29 457.274 569.357C457.26 569.424 457.225 569.487 457.172 569.543C457.119 569.598 457.049 569.643 456.967 569.676C456.886 569.708 456.796 569.726 456.704 569.729Z" fill="white"/>
<path opacity="0.2" d="M456.164 569.385C455.937 569.343 455.716 569.284 455.506 569.209C455.188 569.116 454.85 569.064 454.508 569.055C454.921 569.045 455.332 569.097 455.716 569.209C455.926 569.284 456.147 569.343 456.374 569.385H456.464C456.365 569.396 456.264 569.396 456.164 569.385Z" fill="white"/>
<path opacity="0.2" d="M457.501 570.593C457.641 570.593 457.861 570.41 457.97 570.41C457.434 570.416 456.903 570.336 456.414 570.176C456.525 570.208 456.643 570.225 456.763 570.227C457.206 570.351 457.677 570.41 458.15 570.403C458.04 570.403 457.821 570.557 457.681 570.586C457.562 570.6 457.441 570.6 457.322 570.586L457.501 570.593Z" fill="white"/>
<path opacity="0.2" d="M453.411 573.465C453.833 573.454 454.246 573.371 454.618 573.223C454.94 573.063 455.216 572.858 455.428 572.619C455.641 572.38 455.786 572.112 455.855 571.831C455.912 571.556 456.016 571.288 456.164 571.033C456.243 570.915 456.363 570.815 456.512 570.743C456.661 570.67 456.834 570.629 457.013 570.623H457.182C457.004 570.629 456.831 570.67 456.682 570.743C456.533 570.815 456.413 570.915 456.334 571.033C456.185 571.288 456.081 571.556 456.025 571.831C455.956 572.112 455.81 572.38 455.598 572.619C455.385 572.858 455.11 573.063 454.788 573.223C454.416 573.371 454.003 573.454 453.58 573.465H453.411Z" fill="white"/>
<path opacity="0.2" d="M456.913 570.234C457.097 570.225 457.274 570.182 457.43 570.109C457.585 570.036 457.712 569.936 457.801 569.817L458 569.773C457.905 569.922 457.75 570.047 457.555 570.129C457.361 570.212 457.137 570.248 456.913 570.234Z" fill="white"/>
</g>
<path opacity="0.2" d="M462.979 568.213C462.979 568.213 463.498 567.89 462.979 567.319C462.911 567.236 462.816 567.165 462.703 567.114C462.59 567.063 462.463 567.033 462.33 567.026C462.491 567.013 462.653 567.033 462.798 567.085C462.943 567.137 463.064 567.218 463.149 567.319C463.667 567.89 463.149 568.213 463.149 568.213C462.821 568.265 462.486 568.292 462.151 568.293C462.429 568.283 462.706 568.256 462.979 568.213Z" fill="white"/>
<path d="M474.872 561.1C474.872 561.1 472.308 567.041 476.608 570.329L477.855 569.597C477.855 569.597 475.311 563.115 476.738 561.591C474.223 561.012 474.872 561.1 474.872 561.1Z" fill="#51B9D1"/>
<path d="M476.648 561.628C476.648 561.628 477.167 561.305 476.648 560.734C476.129 560.163 475.171 560.61 475.171 560.61C475.171 560.61 474.822 561.437 475.171 561.628C475.521 561.818 476.648 561.628 476.648 561.628Z" fill="#F6B9AD"/>
<path d="M478.683 569.289H478.883C479.5 569.289 480 568.922 480 568.469V567.458C480 567.005 479.5 566.638 478.883 566.638H478.683C478.066 566.638 477.566 567.005 477.566 567.458V568.469C477.566 568.922 478.066 569.289 478.683 569.289Z" fill="#F6B9AD"/>
<path opacity="0.2" d="M477.676 570.014C477.676 570.014 475.161 563.612 476.528 562.038H476.728H476.788C475.361 563.561 477.905 570.044 477.905 570.044L476.658 570.776L476.548 570.688L477.676 570.014Z" fill="white"/>
<path d="M478.733 567.561C480.221 567.561 481.427 566.675 481.427 565.583C481.427 564.491 480.221 563.605 478.733 563.605C477.245 563.605 476.039 564.491 476.039 565.583C476.039 566.675 477.245 567.561 478.733 567.561Z" fill="#F6B9AD"/>
<path opacity="0.2" d="M479.691 568.388V567.531C479.7 567.468 479.7 567.404 479.691 567.341C480.218 567.143 480.642 566.823 480.897 566.431C481.151 566.039 481.223 565.596 481.1 565.17C480.978 564.745 480.668 564.361 480.218 564.079C479.769 563.796 479.205 563.629 478.613 563.605H478.763C479.367 563.605 479.954 563.754 480.43 564.028C480.905 564.302 481.241 564.685 481.384 565.116C481.527 565.547 481.468 566.001 481.217 566.404C480.966 566.808 480.537 567.138 480 567.341C480.01 567.404 480.01 567.468 480 567.531V568.396C480 568.633 479.872 568.86 479.644 569.028C479.415 569.195 479.106 569.289 478.783 569.289H478.633C478.93 569.261 479.201 569.153 479.396 568.987C479.591 568.821 479.696 568.608 479.691 568.388Z" fill="white"/>
<path d="M476 575.442C476 575.442 481.198 575.874 481.387 575.442C482.006 574.05 480.39 572.512 481.178 571.78C481.421 571.521 481.569 571.22 481.605 570.907C481.642 570.593 481.567 570.278 481.387 569.993C481.387 569.733 481.318 569.476 481.182 569.236C481.047 568.996 480.848 568.778 480.598 568.594C480.348 568.411 480.051 568.265 479.724 568.165C479.397 568.066 479.047 568.015 478.693 568.015C477.979 568.015 477.294 568.223 476.789 568.594C476.283 568.965 476 569.468 476 569.993V575.442Z" fill="#51B9D1"/>
<path opacity="0.2" d="M481.188 571.809C481.431 571.55 481.579 571.249 481.615 570.936C481.652 570.622 481.577 570.307 481.397 570.022C481.397 569.497 481.113 568.994 480.608 568.623C480.103 568.253 479.418 568.044 478.703 568.044H478.534C479.217 568.076 479.858 568.297 480.326 568.663C480.795 569.029 481.057 569.512 481.058 570.015C481.238 570.3 481.313 570.615 481.276 570.929C481.239 571.242 481.092 571.543 480.848 571.802C480.01 572.534 481.677 574.043 481.058 575.464C480.998 575.596 480.459 575.647 479.751 575.655C480.629 575.655 481.337 575.618 481.407 575.464C482.016 574.05 480.35 572.542 481.188 571.809Z" fill="white"/>
<path d="M480.28 575.318C482.284 577.645 483.064 580.429 482.475 583.148V583.236H480.858C481.183 582.251 481.183 581.224 480.858 580.24C480.551 579.093 479.677 578.07 478.404 577.369L476.838 583.228H475.331L476.838 575.318H480.28Z" fill="#F6B9AD"/>
<path d="M489.429 563.935C489.429 563.935 490.057 563.744 489.788 563.078C489.519 562.411 488.431 562.638 488.431 562.638C488.431 562.638 487.763 563.371 488.022 563.613C488.282 563.854 489.429 563.935 489.429 563.935Z" fill="#F6B9AD"/>
<path d="M480.2 570.337C480.2 570.337 488.272 568.418 489.419 563.935L487.922 563.598C487.922 563.598 481.936 568.469 479.462 568.506C476.987 568.542 480.2 570.337 480.2 570.337Z" fill="#51B9D1"/>
<path opacity="0.2" d="M489.14 563.942L489.389 564.001C488.242 568.484 480.17 570.403 480.17 570.403L480.03 570.322C480.978 570.073 488.072 568.125 489.14 563.942Z" fill="white"/>
<g opacity="0.2">
<path opacity="0.2" d="M478.035 577.361L476.468 583.221H476.818L478.334 577.522C478.238 577.465 478.138 577.411 478.035 577.361Z" fill="white"/>
<path opacity="0.2" d="M480.28 575.318H479.931C481.935 577.645 482.715 580.429 482.126 583.148V583.236H482.445V583.148C483.043 580.431 482.273 577.648 480.28 575.318Z" fill="white"/>
</g>
<path opacity="0.2" d="M489.249 563.869C489.249 563.869 489.878 563.678 489.609 563.012C489.577 562.918 489.515 562.832 489.428 562.759C489.341 562.686 489.232 562.63 489.11 562.594C489.268 562.616 489.416 562.67 489.534 562.75C489.652 562.83 489.737 562.934 489.778 563.049C490.048 563.708 489.419 563.906 489.419 563.906C489.081 563.886 488.746 563.839 488.421 563.766C488.693 563.817 488.97 563.851 489.249 563.869Z" fill="white"/>
<path d="M475.999 575.229L472.727 580.298C474.64 580.368 476.544 580.536 478.424 580.804C482.046 581.309 483.772 580.071 483.772 580.071L481.447 575.229H475.999Z" fill="#1E2534"/>
<path d="M476.867 583.206C476.867 583.206 478.594 583.463 478.244 583.939H475.141L475.311 583.206H476.867Z" fill="#51B9D1"/>
<path d="M482.385 583.206C482.385 583.206 484.111 583.463 483.762 583.939H480.659L480.828 583.206H482.385Z" fill="#51B9D1"/>
<path d="M481.178 563.957C481.178 563.957 477.037 568.264 478.933 570.036L471.52 569.912C471.52 569.912 473.585 560.155 481.178 563.957Z" fill="#1E2534"/>
<path opacity="0.2" d="M481.178 563.957C480.327 563.495 479.332 563.198 478.284 563.093C478.997 563.26 479.67 563.508 480.28 563.825C480.28 563.825 476.139 568.132 478.035 569.905L471.51 569.795V569.905L478.923 570.029C477.037 568.264 481.178 563.957 481.178 563.957Z" fill="white"/>
<path opacity="0.2" d="M481.447 575.229H480.928L483.263 580.042C482.297 580.624 481.081 580.936 479.831 580.921C481.267 581.024 482.701 580.709 483.822 580.042L481.447 575.229Z" fill="white"/>
<path opacity="0.2" d="M476.867 583.206H476.518C476.518 583.206 478.244 583.463 477.895 583.939H478.244C478.594 583.455 476.867 583.206 476.867 583.206Z" fill="white"/>
<path opacity="0.2" d="M482.385 583.206H482.036C482.036 583.206 483.762 583.463 483.413 583.939H483.762C484.111 583.455 482.385 583.206 482.385 583.206Z" fill="white"/>
<path d="M716.24 41.3722H535.3C529.799 41.3722 525.34 44.6384 525.34 48.6676V49.964C525.34 53.9932 529.799 57.2594 535.3 57.2594H716.24C721.741 57.2594 726.2 53.9932 726.2 49.964V48.6676C726.2 44.6384 721.741 41.3722 716.24 41.3722Z" fill="white"/>
<path d="M761.23 54.9082H580.29C574.789 54.9082 570.33 58.1745 570.33 62.2036V63.5001C570.33 67.5292 574.789 70.7955 580.29 70.7955H761.23C766.731 70.7955 771.19 67.5292 771.19 63.5001V62.2036C771.19 58.1745 766.731 54.9082 761.23 54.9082Z" fill="white"/>
<path d="M684.9 66.679H503.96C498.459 66.679 494 69.9452 494 73.9744V75.2708C494 79.3 498.459 82.5662 503.96 82.5662H684.9C690.401 82.5662 694.86 79.3 694.86 75.2708V73.9744C694.86 69.9452 690.401 66.679 684.9 66.679Z" fill="white"/>
<path d="M1038.24 310H857.3C851.799 310 847.34 313.266 847.34 317.295V318.592C847.34 322.621 851.799 325.887 857.3 325.887H1038.24C1043.74 325.887 1048.2 322.621 1048.2 318.592V317.295C1048.2 313.266 1043.74 310 1038.24 310Z" fill="white"/>
<path d="M1083.23 323.536H902.29C896.789 323.536 892.33 326.802 892.33 330.832V332.128C892.33 336.157 896.789 339.423 902.29 339.423H1083.23C1088.73 339.423 1093.19 336.157 1093.19 332.128V330.832C1093.19 326.802 1088.73 323.536 1083.23 323.536Z" fill="white"/>
<path d="M1006.9 335.307H825.96C820.459 335.307 816 338.573 816 342.602V343.899C816 347.928 820.459 351.194 825.96 351.194H1006.9C1012.4 351.194 1016.86 347.928 1016.86 343.899V342.602C1016.86 338.573 1012.4 335.307 1006.9 335.307Z" fill="white"/>
<path d="M1069.24 127H888.3C882.799 127 878.34 130.266 878.34 134.295V135.592C878.34 139.621 882.799 142.887 888.3 142.887H1069.24C1074.74 142.887 1079.2 139.621 1079.2 135.592V134.295C1079.2 130.266 1074.74 127 1069.24 127Z" fill="white"/>
<path d="M1114.23 140.536H933.29C927.789 140.536 923.33 143.802 923.33 147.832V149.128C923.33 153.157 927.789 156.423 933.29 156.423H1114.23C1119.73 156.423 1124.19 153.157 1124.19 149.128V147.832C1124.19 143.802 1119.73 140.536 1114.23 140.536Z" fill="white"/>
<path d="M1037.9 152.307H856.96C851.459 152.307 847 155.573 847 159.602V160.899C847 164.928 851.459 168.194 856.96 168.194H1037.9C1043.4 168.194 1047.86 164.928 1047.86 160.899V159.602C1047.86 155.573 1043.4 152.307 1037.9 152.307Z" fill="white"/>
<defs>
<linearGradient id="paint0_linear" x1="2531.43" y1="573.179" x2="2531.43" y2="573.179" gradientUnits="userSpaceOnUse">
<stop stop-color="#808080" stop-opacity="0.25"/>
<stop offset="0.54" stop-color="#808080" stop-opacity="0.12"/>
<stop offset="1" stop-color="#808080" stop-opacity="0.1"/>
</linearGradient>
<linearGradient id="paint1_linear" x1="-34666.4" y1="15082.1" x2="-34666.4" y2="14429.4" gradientUnits="userSpaceOnUse">
<stop stop-color="#808080" stop-opacity="0.25"/>
<stop offset="0.54" stop-color="#808080" stop-opacity="0.12"/>
<stop offset="1" stop-color="#808080" stop-opacity="0.1"/>
</linearGradient>
</defs>
</svg>
