<svg width="569" height="190" viewBox="0 0 569 190" fill="none" xmlns="http://www.w3.org/2000/svg">
<path d="M513.24 0H332.3C326.799 0 322.34 3.91502 322.34 8.74445V10.2984C322.34 15.1279 326.799 19.0429 332.3 19.0429H513.24C518.741 19.0429 523.2 15.1279 523.2 10.2984V8.74445C523.2 3.91502 518.741 0 513.24 0Z" fill="#EFF7FD"/>
<path d="M558.23 16.2246H377.29C371.789 16.2246 367.33 20.1396 367.33 24.9691V26.5231C367.33 31.3525 371.789 35.2675 377.29 35.2675H558.23C563.731 35.2675 568.19 31.3525 568.19 26.5231V24.9691C568.19 20.1396 563.731 16.2246 558.23 16.2246Z" fill="#EFF7FD"/>
<path d="M481.9 30.3335H300.96C295.459 30.3335 291 34.2485 291 39.0779V40.6319C291 45.4614 295.459 49.3764 300.96 49.3764H481.9C487.401 49.3764 491.86 45.4614 491.86 40.6319V39.0779C491.86 34.2485 487.401 30.3335 481.9 30.3335Z" fill="#EFF7FD"/>
<path d="M222.24 56H41.3C35.7993 56 31.3401 59.915 31.3401 64.7445V66.2984C31.3401 71.1279 35.7993 75.0429 41.3 75.0429H222.24C227.741 75.0429 232.2 71.1279 232.2 66.2984V64.7445C232.2 59.915 227.741 56 222.24 56Z" fill="#EFF7FD"/>
<path d="M267.23 72.2246H86.29C80.7893 72.2246 76.3301 76.1396 76.3301 80.9691V82.5231C76.3301 87.3525 80.7893 91.2675 86.29 91.2675H267.23C272.731 91.2675 277.19 87.3525 277.19 82.5231V80.9691C277.19 76.1396 272.731 72.2246 267.23 72.2246Z" fill="#EFF7FD"/>
<path d="M190.9 86.3335H9.96002C4.45927 86.3335 0 90.2485 0 95.0779V96.6319C0 101.461 4.45927 105.376 9.96002 105.376H190.9C196.401 105.376 200.86 101.461 200.86 96.6319V95.0779C200.86 90.2485 196.401 86.3335 190.9 86.3335Z" fill="#EFF7FD"/>
<path d="M434.24 140H253.3C247.799 140 243.34 143.915 243.34 148.744V150.298C243.34 155.128 247.799 159.043 253.3 159.043H434.24C439.741 159.043 444.2 155.128 444.2 150.298V148.744C444.2 143.915 439.741 140 434.24 140Z" fill="#EFF7FD"/>
<path d="M479.23 156.225H298.29C292.789 156.225 288.33 160.14 288.33 164.969V166.523C288.33 171.352 292.789 175.268 298.29 175.268H479.23C484.731 175.268 489.19 171.352 489.19 166.523V164.969C489.19 160.14 484.731 156.225 479.23 156.225Z" fill="#EFF7FD"/>
<path d="M402.9 170.333H221.96C216.459 170.333 212 174.249 212 179.078V180.632C212 185.461 216.459 189.376 221.96 189.376H402.9C408.401 189.376 412.86 185.461 412.86 180.632V179.078C412.86 174.249 408.401 170.333 402.9 170.333Z" fill="#EFF7FD"/>
</svg>
