<svg width="640" height="450" viewBox="0 0 640 450" fill="none" xmlns="http://www.w3.org/2000/svg">
<g clip-path="url(#clip0)">
<path d="M273.017 361.812C317.74 361.812 358.155 330.842 368.203 285.493C377.504 243.51 350.854 201.802 308.795 192.517C300.766 190.745 292.466 190.568 284.37 191.998C276.273 193.427 268.537 196.434 261.604 200.848C254.672 205.261 248.678 210.995 243.965 217.72C239.252 224.446 235.913 232.033 234.137 240.047C231.277 253.024 233.691 266.604 240.849 277.807C248.008 289.009 259.326 296.921 272.32 299.805C281.298 301.75 290.672 300.59 298.902 296.516C307.132 292.442 313.73 285.695 317.611 277.383C317.644 277.313 317.663 277.236 317.666 277.159C317.669 277.081 317.657 277.003 317.63 276.93C317.603 276.857 317.562 276.79 317.509 276.732C317.457 276.675 317.393 276.629 317.322 276.596C317.251 276.564 317.174 276.546 317.096 276.543C317.018 276.54 316.941 276.552 316.867 276.58C316.794 276.607 316.727 276.648 316.67 276.701C316.613 276.754 316.567 276.818 316.535 276.889C312.768 284.956 306.364 291.505 298.376 295.459C290.388 299.414 281.29 300.539 272.576 298.65C259.888 295.834 248.837 288.109 241.848 277.171C234.858 266.232 232.501 252.973 235.294 240.302C238.812 224.423 248.505 210.59 262.241 201.845C275.978 193.1 292.631 190.16 308.539 193.672C328.45 198.091 345.792 210.213 356.761 227.379C367.729 244.545 371.428 265.353 367.046 285.237C355.578 336.999 304.061 369.797 252.203 358.35C235.07 354.58 218.97 347.117 205.03 336.484C191.089 325.852 179.646 312.306 171.5 296.796C171.464 296.727 171.415 296.666 171.355 296.616C171.295 296.566 171.226 296.528 171.152 296.505C171.078 296.482 170.999 296.473 170.922 296.481C170.844 296.488 170.769 296.51 170.7 296.546C170.631 296.582 170.57 296.632 170.52 296.691C170.47 296.751 170.433 296.82 170.409 296.895C170.386 296.969 170.378 297.047 170.386 297.124C170.393 297.202 170.415 297.277 170.452 297.346C178.677 313.009 190.233 326.687 204.31 337.424C218.388 348.161 234.646 355.697 251.947 359.505C258.866 361.036 265.931 361.809 273.017 361.812Z" fill="#EFF7FD"/>
<path d="M157.761 228.708C157.907 228.708 158.048 228.654 158.157 228.556C158.265 228.459 158.334 228.325 158.349 228.18C158.831 223.71 159.56 219.271 160.532 214.882C176.003 145.058 239.136 95.3846 310.651 96.8364C310.808 96.8396 310.96 96.7803 311.073 96.6716C311.186 96.5629 311.252 96.4138 311.255 96.257C311.258 96.1002 311.198 95.9486 311.09 95.8355C310.981 95.7224 310.831 95.6571 310.674 95.6539C275.573 95.0033 241.327 106.496 213.749 128.182C186.171 149.868 166.96 180.411 159.376 214.627C158.394 219.059 157.658 223.541 157.171 228.054C157.163 228.131 157.17 228.209 157.192 228.284C157.214 228.358 157.25 228.428 157.299 228.488C157.348 228.548 157.408 228.599 157.477 228.636C157.545 228.673 157.62 228.696 157.697 228.705C157.718 228.707 157.74 228.708 157.761 228.708Z" fill="#EFF7FD"/>
<path d="M484.44 325.675C484.575 325.675 484.705 325.629 484.81 325.544C484.915 325.46 484.988 325.342 485.017 325.211C492.473 291.677 490.65 256.751 479.743 224.172C468.837 191.593 449.258 162.589 423.104 140.266C423.045 140.215 422.977 140.176 422.902 140.151C422.828 140.127 422.75 140.117 422.672 140.123C422.594 140.128 422.518 140.149 422.449 140.185C422.379 140.22 422.317 140.268 422.266 140.327C422.215 140.387 422.177 140.455 422.152 140.529C422.128 140.604 422.119 140.682 422.125 140.759C422.132 140.837 422.153 140.913 422.189 140.982C422.224 141.052 422.273 141.113 422.333 141.164C448.324 163.348 467.781 192.171 478.619 224.547C489.458 256.922 491.27 291.631 483.861 324.956C483.842 325.042 483.842 325.132 483.862 325.218C483.882 325.304 483.922 325.385 483.977 325.454C484.033 325.523 484.103 325.579 484.183 325.617C484.263 325.655 484.351 325.675 484.44 325.675Z" fill="#EFF7FD"/>
<path d="M320.732 161.193H413.138C415.807 161.19 418.367 160.13 420.255 158.245C422.143 156.361 423.205 153.806 423.208 151.141V76.0514C423.205 73.3865 422.143 70.8317 420.255 68.9473C418.367 67.0629 415.807 66.003 413.138 66H320.732C318.063 66.003 315.503 67.0629 313.615 68.9473C311.727 70.8317 310.666 73.3865 310.662 76.0514V151.141C310.666 153.806 311.727 156.361 313.615 158.245C315.503 160.13 318.063 161.19 320.732 161.193ZM413.138 67.1825C415.493 67.1852 417.752 68.1204 419.417 69.7831C421.083 71.4458 422.02 73.7 422.023 76.0514V151.141C422.02 153.493 421.083 155.747 419.417 157.41C417.752 159.072 415.493 160.008 413.138 160.01H320.732C318.377 160.008 316.118 159.072 314.453 157.41C312.787 155.747 311.85 153.493 311.847 151.141V76.0514C311.85 73.7 312.787 71.4458 314.453 69.7831C316.118 68.1204 318.377 67.1852 320.732 67.1825H413.138Z" fill="#EFF7FD"/>
<path d="M331.235 88.5495H377.871C378.281 88.5578 378.679 88.4104 378.984 88.1373C379.289 87.8641 379.479 87.4854 379.515 87.0778C379.527 86.8668 379.495 86.6557 379.422 86.4574C379.349 86.2591 379.236 86.0778 379.09 85.9244C378.945 85.771 378.769 85.6489 378.575 85.5654C378.381 85.4819 378.171 85.4389 377.959 85.4389H330.487C328.923 86.8106 329.876 88.5495 331.236 88.5495L331.235 88.5495Z" fill="#EFF7FD"/>
<path d="M331.235 96.7147H377.871C378.281 96.723 378.679 96.5757 378.984 96.3025C379.289 96.0293 379.479 95.6507 379.515 95.2431C379.527 95.0321 379.495 94.821 379.422 94.6227C379.349 94.4244 379.236 94.243 379.09 94.0896C378.945 93.9363 378.769 93.8141 378.575 93.7307C378.381 93.6472 378.171 93.6041 377.959 93.6041H330.487C328.923 94.9758 329.876 96.7147 331.236 96.7147H331.235Z" fill="#EFF7FD"/>
<path d="M387.953 101.364H402.186C402.65 101.363 403.096 101.179 403.424 100.851C403.753 100.523 403.938 100.078 403.938 99.6143V82.8491C403.938 82.3853 403.753 81.9405 403.424 81.6125C403.096 81.2845 402.65 81.1 402.186 81.0996H387.953C387.488 81.1002 387.043 81.2847 386.714 81.6127C386.386 81.9407 386.201 82.3853 386.2 82.8491V99.6143C386.201 100.078 386.385 100.523 386.714 100.851C387.043 101.179 387.488 101.363 387.953 101.364Z" fill="#EFF7FD"/>
<path d="M331.371 113.433H402.546C402.956 113.441 403.353 113.294 403.659 113.021C403.964 112.748 404.154 112.369 404.19 111.962C404.201 111.751 404.169 111.539 404.096 111.341C404.023 111.143 403.911 110.961 403.765 110.808C403.619 110.655 403.444 110.533 403.25 110.449C403.055 110.366 402.846 110.323 402.634 110.323H330.622C329.058 111.694 330.011 113.433 331.371 113.433V113.433Z" fill="#EFF7FD"/>
<path d="M331.371 121.601H402.546C402.956 121.609 403.353 121.462 403.659 121.189C403.964 120.915 404.154 120.537 404.19 120.129C404.201 119.918 404.17 119.707 404.096 119.509C404.023 119.311 403.911 119.129 403.765 118.976C403.619 118.822 403.444 118.7 403.25 118.617C403.055 118.533 402.846 118.49 402.634 118.49H330.622C329.058 119.862 330.011 121.601 331.371 121.601V121.601Z" fill="#EFF7FD"/>
<path d="M331.371 129.763H402.546C402.956 129.772 403.353 129.624 403.659 129.351C403.964 129.078 404.154 128.699 404.19 128.292C404.201 128.081 404.169 127.869 404.096 127.671C404.023 127.473 403.911 127.291 403.765 127.138C403.619 126.985 403.444 126.863 403.25 126.779C403.055 126.696 402.846 126.653 402.634 126.653H330.622C329.058 128.024 330.011 129.763 331.371 129.763V129.763Z" fill="#EFF7FD"/>
<path d="M331.371 137.93H402.546C402.956 137.939 403.353 137.791 403.659 137.518C403.964 137.245 404.154 136.866 404.19 136.459C404.201 136.248 404.169 136.037 404.096 135.838C404.023 135.64 403.911 135.459 403.765 135.305C403.619 135.152 403.444 135.03 403.25 134.946C403.055 134.863 402.846 134.82 402.634 134.82H330.622C329.058 136.191 330.011 137.93 331.371 137.93V137.93Z" fill="#EFF7FD"/>
<path d="M331.371 146.093H402.546C402.956 146.102 403.353 145.954 403.659 145.681C403.964 145.408 404.154 145.029 404.19 144.622C404.201 144.411 404.169 144.2 404.096 144.001C404.023 143.803 403.911 143.622 403.765 143.468C403.619 143.315 403.444 143.193 403.25 143.109C403.055 143.026 402.846 142.983 402.634 142.983H330.622C329.058 144.354 330.011 146.093 331.371 146.093V146.093Z" fill="#EFF7FD"/>
<path d="M130.887 297.662H197.821C199.912 297.66 201.917 296.83 203.395 295.354C204.874 293.878 205.705 291.877 205.708 289.79V235.398C205.705 233.311 204.874 231.31 203.395 229.834C201.917 228.358 199.912 227.528 197.821 227.526H130.887C128.796 227.528 126.791 228.358 125.313 229.834C123.834 231.31 123.002 233.31 123 235.398V289.79C123.002 291.877 123.834 293.878 125.313 295.354C126.791 296.83 128.796 297.66 130.887 297.662ZM197.821 228.708C199.598 228.71 201.302 229.416 202.558 230.67C203.814 231.924 204.521 233.624 204.523 235.398V289.79C204.521 291.564 203.814 293.264 202.558 294.518C201.302 295.772 199.598 296.478 197.821 296.48H130.887C129.11 296.478 127.406 295.772 126.15 294.518C124.893 293.264 124.187 291.564 124.185 289.79V235.398C124.187 233.624 124.893 231.924 126.15 230.67C127.406 229.415 129.11 228.71 130.887 228.708L197.821 228.708Z" fill="#EFF7FD"/>
<path d="M138.495 244.451H172.276C172.573 244.457 172.861 244.35 173.082 244.152C173.303 243.954 173.44 243.68 173.467 243.385C173.475 243.232 173.452 243.079 173.399 242.935C173.346 242.792 173.264 242.66 173.159 242.549C173.053 242.438 172.926 242.35 172.785 242.289C172.645 242.229 172.493 242.198 172.34 242.198H137.952C136.82 243.191 137.51 244.451 138.495 244.451L138.495 244.451Z" fill="#EFF7FD"/>
<path d="M138.495 250.365H172.276C172.573 250.371 172.861 250.265 173.082 250.067C173.303 249.869 173.44 249.595 173.467 249.299C173.475 249.147 173.452 248.994 173.399 248.85C173.346 248.706 173.264 248.575 173.159 248.464C173.053 248.353 172.926 248.264 172.785 248.204C172.645 248.143 172.493 248.112 172.34 248.112H137.952C136.82 249.106 137.51 250.365 138.495 250.365L138.495 250.365Z" fill="#EFF7FD"/>
<path d="M179.578 253.733H189.888C190.225 253.733 190.547 253.599 190.785 253.361C191.023 253.124 191.157 252.802 191.158 252.466V240.322C191.157 239.986 191.023 239.664 190.785 239.426C190.547 239.188 190.225 239.055 189.888 239.054H179.578C179.242 239.055 178.919 239.188 178.681 239.426C178.443 239.664 178.309 239.986 178.309 240.322V252.466C178.309 252.802 178.443 253.124 178.681 253.361C178.919 253.599 179.242 253.733 179.578 253.733Z" fill="#EFF7FD"/>
<path d="M138.593 262.476H190.149C190.446 262.482 190.734 262.375 190.955 262.177C191.176 261.979 191.314 261.705 191.34 261.41C191.348 261.257 191.325 261.104 191.272 260.96C191.219 260.817 191.138 260.685 191.032 260.574C190.927 260.463 190.8 260.374 190.659 260.314C190.518 260.254 190.366 260.222 190.213 260.222H138.05C136.917 261.216 137.608 262.476 138.593 262.476V262.476Z" fill="#EFF7FD"/>
<path d="M138.593 268.392H190.149C190.446 268.398 190.734 268.291 190.955 268.093C191.176 267.895 191.314 267.621 191.34 267.326C191.348 267.173 191.325 267.02 191.272 266.877C191.219 266.733 191.138 266.601 191.032 266.49C190.927 266.379 190.8 266.291 190.659 266.23C190.518 266.17 190.366 266.139 190.213 266.139H138.05C136.917 267.132 137.608 268.392 138.593 268.392V268.392Z" fill="#EFF7FD"/>
<path d="M138.593 274.304H190.149C190.446 274.31 190.734 274.204 190.955 274.006C191.176 273.808 191.314 273.534 191.34 273.238C191.348 273.086 191.325 272.933 191.272 272.789C191.219 272.645 191.138 272.514 191.032 272.403C190.927 272.292 190.8 272.203 190.659 272.143C190.518 272.082 190.366 272.051 190.213 272.051H138.05C136.917 273.045 137.608 274.304 138.593 274.304V274.304Z" fill="#EFF7FD"/>
<path d="M138.593 280.22H190.149C190.446 280.226 190.734 280.12 190.955 279.922C191.176 279.724 191.314 279.45 191.34 279.154C191.348 279.001 191.325 278.849 191.272 278.705C191.219 278.561 191.138 278.43 191.032 278.319C190.927 278.208 190.8 278.119 190.659 278.059C190.518 277.998 190.366 277.967 190.213 277.967H138.05C136.917 278.961 137.608 280.22 138.593 280.22V280.22Z" fill="#EFF7FD"/>
<path d="M138.593 286.133H190.149C190.446 286.139 190.734 286.033 190.955 285.835C191.176 285.637 191.314 285.362 191.34 285.067C191.348 284.914 191.325 284.761 191.272 284.618C191.219 284.474 191.138 284.343 191.032 284.232C190.927 284.121 190.8 284.032 190.659 283.972C190.518 283.911 190.366 283.88 190.213 283.88H138.05C136.917 284.874 137.608 286.133 138.593 286.133V286.133Z" fill="#EFF7FD"/>
<path d="M295.368 277.948H337.804C339.187 277.947 340.513 277.397 341.491 276.421C342.469 275.445 343.019 274.121 343.021 272.741V238.257C343.019 236.876 342.469 235.552 341.491 234.576C340.513 233.6 339.187 233.051 337.804 233.049H295.368C293.985 233.051 292.659 233.6 291.681 234.576C290.703 235.552 290.152 236.876 290.151 238.257V272.741C290.152 274.121 290.703 275.445 291.681 276.421C292.659 277.397 293.985 277.947 295.368 277.948ZM337.804 234.232C338.873 234.233 339.898 234.657 340.654 235.412C341.41 236.167 341.835 237.19 341.836 238.257V272.741C341.835 273.808 341.41 274.831 340.654 275.585C339.898 276.34 338.873 276.764 337.804 276.766H295.368C294.299 276.764 293.274 276.34 292.518 275.585C291.762 274.831 291.337 273.808 291.336 272.741V238.257C291.337 237.19 291.762 236.167 292.518 235.412C293.274 234.657 294.299 234.233 295.368 234.232H337.804Z" fill="#EFF7FD"/>
<path d="M302.074 259.194H331.098C331.805 259.194 332.483 258.914 332.983 258.415C333.483 257.916 333.764 257.239 333.764 256.533C333.764 255.828 333.483 255.151 332.983 254.652C332.483 254.153 331.805 253.873 331.098 253.873H302.074C301.367 253.873 300.689 254.153 300.189 254.652C299.689 255.151 299.408 255.828 299.408 256.533C299.408 257.239 299.689 257.916 300.189 258.415C300.689 258.914 301.367 259.194 302.074 259.194Z" fill="#EFF7FD"/>
<path d="M307.997 248.256H325.175C325.882 248.256 326.56 247.975 327.06 247.476C327.56 246.977 327.84 246.301 327.84 245.595C327.84 244.889 327.56 244.213 327.06 243.714C326.56 243.215 325.882 242.934 325.175 242.934H307.997C307.29 242.934 306.612 243.215 306.112 243.714C305.612 244.213 305.331 244.889 305.331 245.595C305.331 246.301 305.612 246.977 306.112 247.476C306.612 247.975 307.29 248.256 307.997 248.256Z" fill="#EFF7FD"/>
<path d="M302.074 268.063H331.098C331.805 268.063 332.483 267.783 332.983 267.284C333.483 266.785 333.764 266.108 333.764 265.402C333.764 264.697 333.483 264.02 332.983 263.521C332.483 263.022 331.805 262.742 331.098 262.742H302.074C301.367 262.742 300.689 263.022 300.189 263.521C299.689 264.02 299.408 264.697 299.408 265.402C299.408 266.108 299.689 266.785 300.189 267.284C300.689 267.783 301.367 268.063 302.074 268.063Z" fill="#EFF7FD"/>
<path d="M554.13 346.022C554.539 345.255 554.776 344.408 554.822 343.54C554.868 342.672 554.723 341.804 554.397 340.998C554.071 340.192 553.572 339.467 552.935 338.875C552.298 338.282 551.538 337.836 550.71 337.568L550.273 316.444L541.218 322.676L543.02 341.781C542.662 343.199 542.837 344.7 543.513 345.999C544.189 347.298 545.318 348.304 546.688 348.826C548.057 349.349 549.571 349.353 550.942 348.836C552.314 348.319 553.448 347.318 554.13 346.022H554.13Z" fill="#A0616A"/>
<path d="M544.116 264.682L552.98 331.207L542.309 331.609L533.391 261.774L535.532 260.514C536.346 260.034 537.266 259.763 538.211 259.725C539.156 259.688 540.095 259.884 540.945 260.297C541.796 260.71 542.53 261.326 543.083 262.091C543.637 262.857 543.991 263.747 544.116 264.682Z" fill="#EFF7FD"/>
<path d="M515.825 442.959L508.563 442.958L505.108 414.999L515.826 414.999L515.825 442.959Z" fill="#A0616A"/>
<path d="M494.557 449.689L517.381 449.69L517.381 440.887L503.376 440.887C501.037 440.887 498.794 441.814 497.141 443.465C495.487 445.115 494.558 447.354 494.557 449.689Z" fill="#1E2534"/>
<path d="M576.245 434.296L569.656 437.341L554.752 413.418L564.479 408.923L576.245 434.296Z" fill="#A0616A"/>
<path d="M559.779 449.322L580.491 439.751L576.786 431.764L564.077 437.637C561.954 438.617 560.309 440.399 559.503 442.591C558.697 444.782 558.796 447.203 559.779 449.322Z" fill="#1E2534"/>
<path d="M508.212 437.051C508.318 437.051 508.424 437.045 508.53 437.032L514.275 436.357C514.88 436.284 515.441 436.007 515.867 435.573C516.292 435.138 516.557 434.572 516.618 433.968L523.514 361.75C523.532 361.562 523.61 361.384 523.737 361.243C523.864 361.102 524.032 361.005 524.218 360.966C524.404 360.928 524.598 360.95 524.77 361.029C524.942 361.108 525.085 361.24 525.177 361.406L563.549 430.8C563.838 431.326 564.296 431.738 564.849 431.97C565.403 432.202 566.018 432.24 566.596 432.078L573.051 430.288C573.399 430.192 573.724 430.026 574.006 429.8C574.288 429.574 574.521 429.294 574.691 428.975C574.861 428.656 574.964 428.307 574.994 427.947C575.024 427.587 574.981 427.225 574.866 426.883C569.245 410.095 541.083 325.955 538.675 318.211C535.798 308.957 514.321 305.311 512.47 305.014L511.407 303.952L511.203 304.227C501.723 316.965 497.136 333.835 498.286 351.73L498.287 351.737L505.563 434.622C505.621 435.284 505.925 435.9 506.416 436.349C506.906 436.799 507.546 437.049 508.212 437.051Z" fill="#1E2534"/>
<path d="M538.48 249.532C530.445 249.532 523.932 243.031 523.932 235.01C523.932 226.99 530.445 220.489 538.48 220.489C546.515 220.489 553.029 226.99 553.029 235.01C553.029 243.031 546.515 249.532 538.48 249.532Z" fill="#A0616A"/>
<path d="M537.738 315.986L546.371 271.073C547.093 267.279 546.344 263.352 544.274 260.089C542.205 256.826 538.971 254.47 535.226 253.498C532.912 252.897 530.477 252.938 528.185 253.615C525.892 254.293 523.828 255.581 522.214 257.342C517.807 262.144 512.21 269.131 510.568 275.153C509.178 280.265 505.266 299.422 505.227 299.615L505.196 299.767L505.304 299.879C505.324 299.9 507.42 302.062 510.683 304.761C512.597 306.345 514.554 307.815 516.499 309.13C521.959 312.811 536.816 315.802 537.445 315.927L537.738 315.986Z" fill="#EFF7FD"/>
<path opacity="0.2" d="M516.665 308.886C514.497 307.419 512.53 305.906 510.872 304.534C511.47 295.7 524.507 277.206 529.791 277.206C529.791 277.206 531.041 305.711 516.665 308.886Z" fill="black"/>
<path d="M489.829 332.085C490.648 331.789 491.392 331.317 492.008 330.703C492.624 330.088 493.098 329.347 493.396 328.53C493.694 327.713 493.809 326.842 493.733 325.976C493.656 325.11 493.391 324.271 492.955 323.519L506.792 307.529L495.884 306.112L484.417 321.513C483.199 322.328 482.323 323.56 481.955 324.977C481.587 326.393 481.752 327.896 482.419 329.199C483.086 330.502 484.209 331.515 485.575 332.047C486.94 332.579 488.454 332.593 489.829 332.085H489.829Z" fill="#A0616A"/>
<path d="M528.513 254.457C527.91 254.47 527.31 254.538 526.72 254.662C525.526 254.934 524.419 255.498 523.497 256.303C522.575 257.108 521.867 258.129 521.438 259.274L504.332 294.944L485.97 314.455L495.151 321.846L524.176 295.831L535.771 264.327C536.142 263.19 536.235 261.981 536.045 260.8C535.855 259.619 535.385 258.5 534.676 257.535C533.967 256.571 533.038 255.789 531.967 255.254C530.895 254.719 529.711 254.446 528.513 254.457Z" fill="#EFF7FD"/>
<path d="M539.341 249.399C541.412 246.305 543.046 242.015 540.766 239.072C538.516 236.166 534.078 236.594 530.631 235.309C525.831 233.518 523.047 227.889 523.915 222.848C524.783 217.806 528.837 213.627 533.667 211.917C538.497 210.207 543.944 210.763 548.673 212.733C554.496 215.156 559.49 219.846 561.584 225.785C563.679 231.725 562.559 238.857 558.214 243.422C553.556 248.317 546.246 249.621 539.483 249.542" fill="#1E2534"/>
<path d="M562.187 232.276C562.78 235.582 566.413 237.459 569.752 237.872C573.091 238.285 576.545 237.755 579.795 238.622C585.526 240.15 589.305 245.651 591.386 251.196C593.466 256.74 594.388 262.724 597.091 267.994C599.794 273.264 605.035 277.91 610.946 277.418C609.788 280.328 607.759 282.81 605.135 284.526C602.511 286.243 599.421 287.109 596.286 287.008C593.151 286.906 590.123 285.842 587.617 283.959C585.11 282.077 583.246 279.468 582.28 276.49C580.108 269.799 582.601 261.819 578.804 255.894C576.702 252.616 573.074 250.687 569.575 248.969C566.077 247.25 562.405 245.487 560.059 242.378C557.713 239.269 557.245 234.358 560.135 231.746" fill="#1E2534"/>
<path d="M628.295 450H438.571C438.384 450 438.205 449.925 438.074 449.793C437.942 449.661 437.868 449.482 437.868 449.296C437.868 449.11 437.942 448.931 438.074 448.799C438.205 448.667 438.384 448.593 438.571 448.592H628.295C628.481 448.593 628.66 448.667 628.792 448.799C628.924 448.931 628.998 449.11 628.998 449.296C628.998 449.482 628.924 449.661 628.792 449.793C628.66 449.925 628.481 450 628.295 450Z" fill="#EFF7FD"/>
<path d="M472.592 215.7C468.012 215.7 464.3 211.994 464.3 207.423C464.3 202.851 468.012 199.145 472.592 199.145C477.172 199.145 480.885 202.851 480.885 207.423C480.885 211.994 477.172 215.7 472.592 215.7Z" fill="#51B9D1"/>
<path d="M209 142.975C204.42 142.975 200.707 139.269 200.707 134.698C200.707 130.126 204.42 126.42 209 126.42C213.58 126.42 217.293 130.126 217.293 134.698C217.293 139.269 213.58 142.975 209 142.975Z" fill="#51B9D1"/>
<path d="M299.628 366.472C295.048 366.472 291.336 362.766 291.336 358.194C291.336 353.622 295.048 349.916 299.628 349.916C304.208 349.916 307.921 353.622 307.921 358.194C307.921 362.766 304.208 366.472 299.628 366.472Z" fill="#51B9D1"/>
</g>
<path d="M584.24 0.109192H403.3C397.799 0.109192 393.34 4.02422 393.34 8.85365V10.4076C393.34 15.2371 397.799 19.1521 403.3 19.1521H584.24C589.741 19.1521 594.2 15.2371 594.2 10.4076V8.85365C594.2 4.02422 589.741 0.109192 584.24 0.109192Z" fill="#EFF7FD"/>
<path d="M629.23 16.3338H448.29C442.789 16.3338 438.33 20.2489 438.33 25.0783V26.6323C438.33 31.4617 442.789 35.3767 448.29 35.3767H629.23C634.731 35.3767 639.19 31.4617 639.19 26.6323V25.0783C639.19 20.2489 634.731 16.3338 629.23 16.3338Z" fill="#EFF7FD"/>
<path d="M552.9 30.4426H371.96C366.459 30.4426 362 34.3577 362 39.1871V40.7411C362 45.5705 366.459 49.4855 371.96 49.4855H552.9C558.401 49.4855 562.86 45.5705 562.86 40.7411V39.1871C562.86 34.3577 558.401 30.4426 552.9 30.4426Z" fill="#EFF7FD"/>
<path d="M222.24 49.5262H41.3C35.7993 49.5262 31.3401 53.4412 31.3401 58.2706V59.8246C31.3401 64.6541 35.7993 68.5691 41.3 68.5691H222.24C227.741 68.5691 232.2 64.6541 232.2 59.8246V58.2706C232.2 53.4412 227.741 49.5262 222.24 49.5262Z" fill="#EFF7FD"/>
<path d="M267.23 65.7508H86.29C80.7893 65.7508 76.3301 69.6659 76.3301 74.4953V76.0493C76.3301 80.8787 80.7893 84.7937 86.29 84.7937H267.23C272.731 84.7937 277.19 80.8787 277.19 76.0493V74.4953C277.19 69.6659 272.731 65.7508 267.23 65.7508Z" fill="#EFF7FD"/>
<path d="M190.9 79.8596H9.96002C4.45927 79.8596 0 83.7746 0 88.604V90.158C0 94.9874 4.45927 98.9025 9.96002 98.9025H190.9C196.401 98.9025 200.86 94.9874 200.86 90.158V88.604C200.86 83.7746 196.401 79.8596 190.9 79.8596Z" fill="#EFF7FD"/>
<defs>
<clipPath id="clip0">
<rect width="506" height="384" fill="white" transform="matrix(-1 0 0 1 629 66)"/>
</clipPath>
</defs>
</svg>
