<svg width="32" height="32" viewBox="0 0 32 32" fill="none" xmlns="http://www.w3.org/2000/svg">
<path d="M8.46976 30.9089C8.19565 30.91 7.93254 30.8012 7.73922 30.6069L3.74708 26.6141C3.41396 26.2752 3.35242 25.7538 3.59747 25.3467C3.81843 24.9563 3.75188 24.4664 3.43477 24.1491C3.11765 23.8318 2.62785 23.765 2.23731 23.9857C1.82997 24.2314 1.30794 24.1698 0.968908 23.8362L0.564187 23.4317C0.162159 23.0283 0.161924 22.3759 0.563662 21.9722L21.7326 0.803306C22.1359 0.401014 22.7888 0.401014 23.1921 0.803306L23.5973 1.20855C23.9306 1.54789 23.9917 2.06985 23.7459 2.47701C23.5258 2.86755 23.593 3.35686 23.9101 3.6737C24.2272 3.99054 24.7165 4.05727 25.1069 3.83691C25.5144 3.59195 26.0359 3.65345 26.3753 3.98647L30.3674 7.97928C30.7699 8.38273 30.7697 9.03594 30.3669 9.43911L9.19925 30.6074C9.00622 30.8014 8.74347 30.91 8.46976 30.9089ZM2.74129 22.8123C3.27962 22.8122 3.79588 23.0263 4.1762 23.4073C4.8264 24.0591 4.96256 25.0644 4.50921 25.8658L8.48156 29.8655L29.626 8.69676L25.6332 4.72803C24.8366 5.19956 23.8217 5.0709 23.168 4.41553C22.5181 3.76375 22.3818 2.75891 22.8345 1.95751L22.4503 1.54513L1.30585 22.7139L1.71105 23.0946C2.02293 22.9098 2.37877 22.8123 2.74129 22.8123Z" fill="#1E2534"/>
<path d="M10.981 31.9855C10.7071 31.9865 10.4442 31.8778 10.251 31.6835L8.81611 30.2486C8.67974 30.1169 8.62505 29.9218 8.67305 29.7384C8.72106 29.555 8.8643 29.4118 9.04771 29.3637C9.23112 29.3157 9.42617 29.3704 9.55788 29.5068L10.9934 30.942L15.6332 26.2778L14.1982 24.8666C13.9987 24.6609 14.0012 24.3331 14.2039 24.1304C14.4065 23.9278 14.7343 23.9253 14.9401 24.1249L16.375 25.5598C16.7773 25.9631 16.7773 26.616 16.375 27.0193L11.7105 31.6838C11.5175 31.8779 11.2548 31.9866 10.981 31.9855Z" fill="#1E2534"/>
<path d="M18.8747 24.092C18.6008 24.093 18.3379 23.9842 18.1447 23.79L16.7098 22.3551C16.5116 22.1492 16.5146 21.8225 16.7167 21.6204C16.9187 21.4183 17.2453 21.415 17.4513 21.6131L18.8868 23.0483L30.7023 11.2083L29.2674 9.79742C29.0669 9.59183 29.069 9.2633 29.2721 9.06027C29.4751 8.85723 29.8036 8.85515 30.0092 9.05559L31.4439 10.4908C31.8464 10.8942 31.8462 11.5474 31.4434 11.9506L19.6039 23.7902C19.411 23.9843 19.1484 24.093 18.8747 24.092Z" fill="#1E2534"/>
<path d="M12.7751 30.402C12.6359 30.4022 12.5025 30.3469 12.4042 30.2483L10.6101 28.4546C10.4105 28.2488 10.413 27.921 10.6157 27.7184C10.8183 27.5157 11.1461 27.5132 11.3519 27.7127L13.146 29.5068C13.296 29.6569 13.3408 29.8825 13.2596 30.0785C13.1784 30.2745 12.9872 30.4023 12.775 30.4023L12.7751 30.402Z" fill="#1E2534"/>
<path d="M14.5692 28.6084C14.43 28.6086 14.2965 28.5533 14.1982 28.4547L12.4041 26.6606C12.1993 26.4557 12.1994 26.1236 12.4043 25.9187C12.6092 25.7139 12.9414 25.714 13.1462 25.9189L14.9403 27.713C15.0903 27.863 15.1352 28.0886 15.054 28.2846C14.9728 28.4807 14.7816 28.6085 14.5694 28.6085L14.5692 28.6084Z" fill="#1E2534"/>
<path d="M20.6685 22.5086C20.5293 22.5088 20.3959 22.4535 20.2976 22.355L18.5035 20.5611C18.3047 20.3553 18.3076 20.0281 18.5099 19.8258C18.7123 19.6234 19.0395 19.6206 19.2453 19.8194L21.0394 21.6132C21.1894 21.7632 21.2342 21.9888 21.153 22.1848C21.0719 22.3808 20.8806 22.5086 20.6685 22.5086Z" fill="#1E2534"/>
<path d="M22.4626 20.7151C22.3234 20.7153 22.19 20.6599 22.0917 20.5614L20.2976 18.7673C20.098 18.5616 20.1005 18.2338 20.3032 18.0311C20.5058 17.8284 20.8336 17.8259 21.0394 18.0255L22.8335 19.8196C22.9835 19.9696 23.0283 20.1952 22.9471 20.3912C22.8659 20.5872 22.6747 20.715 22.4625 20.7151L22.4626 20.7151Z" fill="#1E2534"/>
<path d="M24.2567 18.9208C24.1175 18.921 23.984 18.8657 23.8857 18.7671L22.0916 16.9733C21.8912 16.7677 21.8932 16.4392 22.0963 16.2362C22.2993 16.0331 22.6278 16.0311 22.8334 16.2315L24.6275 18.0253C24.7776 18.1753 24.8224 18.4009 24.7413 18.5969C24.6601 18.793 24.4688 18.9208 24.2567 18.9208Z" fill="#1E2534"/>
<path d="M26.0502 17.1271C25.911 17.1273 25.7775 17.072 25.6793 16.9734L23.8857 15.1793C23.7498 15.0475 23.6955 14.8527 23.7436 14.6696C23.7917 14.4865 23.9347 14.3435 24.1178 14.2954C24.3009 14.2473 24.4957 14.3017 24.6275 14.4376L26.421 16.2317C26.571 16.3817 26.6159 16.6073 26.5347 16.8033C26.4535 16.9993 26.2623 17.1271 26.0502 17.1271V17.1271Z" fill="#1E2534"/>
<path d="M27.8442 15.333C27.7051 15.3332 27.5716 15.2779 27.4734 15.1793L25.6793 13.3852C25.5429 13.2535 25.4882 13.0585 25.5362 12.875C25.5842 12.6916 25.7275 12.5484 25.9109 12.5004C26.0943 12.4524 26.2893 12.5071 26.421 12.6434L28.2151 14.4375C28.3651 14.5876 28.41 14.8132 28.3288 15.0092C28.2476 15.2052 28.0563 15.333 27.8442 15.333H27.8442Z" fill="#1E2534"/>
<path d="M29.6383 13.539C29.4991 13.5391 29.3657 13.4838 29.2674 13.3853L27.4733 11.5915C27.2729 11.3859 27.275 11.0574 27.478 10.8543C27.681 10.6513 28.0096 10.6492 28.2151 10.8497L30.0092 12.6438C30.1592 12.7938 30.2041 13.0194 30.1229 13.2154C30.0417 13.4114 29.8504 13.5392 29.6383 13.5392V13.539Z" fill="#1E2534"/>
<path d="M9.18695 26.5968C8.90869 26.5973 8.64171 26.4869 8.44513 26.2899L4.88164 22.7263C4.47231 22.3163 4.47231 21.6524 4.88164 21.2424L7.36883 18.7552C7.77866 18.3459 8.44259 18.3459 8.85242 18.7552L12.416 22.3187C12.8253 22.7287 12.8253 23.3926 12.416 23.8026L9.92878 26.2898C9.73222 26.4868 9.46524 26.5973 9.18695 26.5968ZM8.1106 19.497L5.62357 21.9842L9.18711 25.548L11.6748 23.0603L8.1106 19.497Z" fill="#1E2534"/>
<path d="M13.8514 21.9322C13.5733 21.9327 13.3064 21.8225 13.1096 21.6259L9.54613 18.0617C9.1368 17.6519 9.1368 16.988 9.54613 16.5782L12.0333 14.0909C12.4432 13.6816 13.1071 13.6816 13.5169 14.0909L17.0805 17.6545C17.2773 17.8512 17.3878 18.118 17.3878 18.3963C17.3878 18.6745 17.2773 18.9413 17.0805 19.1381L14.5933 21.6255C14.3966 21.8223 14.1297 21.9327 13.8514 21.9322ZM12.7751 14.8328L10.2879 17.32L13.8514 20.8838L16.3386 18.3964V18.3961L16.3392 18.3956L12.7751 14.8328Z" fill="#1E2534"/>
<path d="M18.5159 17.268C18.2376 17.2685 17.9706 17.158 17.7741 16.9611L14.21 13.3976C13.8019 12.9875 13.8016 12.3246 14.2095 11.9142L16.6977 9.4265C16.8936 9.22914 17.1604 9.11845 17.4385 9.11914H17.4395C17.7179 9.11839 17.985 9.22907 18.1813 9.4265L21.7448 12.9903C21.9416 13.187 22.0522 13.4538 22.0522 13.7321C22.0522 14.0103 21.9416 14.2772 21.7448 14.4739L19.2577 16.9611C19.0611 17.158 18.7941 17.2685 18.5159 17.268ZM17.4395 10.1683L14.9519 12.6555L18.5159 16.2193L21.0036 13.7316L17.4395 10.1683Z" fill="#1E2534"/>
<path d="M23.1798 12.6035C22.9017 12.6039 22.6348 12.4937 22.438 12.2972L18.8747 8.73315C18.4654 8.3233 18.4654 7.65935 18.8747 7.2495L21.3619 4.76232C21.5582 4.56488 21.8254 4.4542 22.1038 4.45496H22.1048C22.3831 4.4543 22.6501 4.56519 22.8461 4.76284L26.4096 8.32586C26.6064 8.52256 26.717 8.78941 26.717 9.06766C26.717 9.3459 26.6064 9.61275 26.4096 9.80945L23.9224 12.2969C23.7255 12.4938 23.4583 12.6042 23.1798 12.6035ZM22.1035 5.50414L19.6163 7.99133L23.1798 11.5551L25.6675 9.06768L25.668 9.06716L22.1035 5.50414Z" fill="#1E2534"/>
</svg>
