<svg width="32" height="32" viewBox="0 0 32 32" fill="none" xmlns="http://www.w3.org/2000/svg">
<path d="M28.9033 5.67742C28.9033 2.49394 23.2356 0 16 0C8.76441 0 3.0968 2.49394 3.0968 5.67742C3.09738 5.85071 3.11467 6.02355 3.14841 6.19355H3.0968V26.3226C3.0968 29.5061 8.76441 32 16 32C23.2356 32 28.9033 29.5061 28.9033 26.3226V6.19355H28.8516C28.8854 6.02355 28.9027 5.85071 28.9033 5.67742ZM27.871 26.3226C27.871 28.5657 23.1009 30.9677 16 30.9677C8.89912 30.9677 4.12906 28.5657 4.12906 26.3226V23.4245C6.08003 25.4508 10.6034 26.8387 16 26.8387C21.3967 26.8387 25.92 25.4508 27.871 23.4245V26.3226ZM27.871 21.1613C27.871 23.4044 23.1009 25.8064 16 25.8064C8.89912 25.8064 4.12906 23.4044 4.12906 21.1613V18.2632C6.08003 20.2895 10.6034 21.6774 16 21.6774C21.3967 21.6774 25.92 20.2895 27.871 18.2632V21.1613ZM27.871 16C27.871 18.2431 23.1009 20.6452 16 20.6452C8.89912 20.6452 4.12906 18.2431 4.12906 16V13.1019C6.08003 15.1283 10.6034 16.5161 16 16.5161C21.3967 16.5161 25.92 15.1283 27.871 13.1019V16ZM27.871 10.8387C27.871 13.0818 23.1009 15.4839 16 15.4839C8.89912 15.4839 4.12906 13.0818 4.12906 10.8387V7.94065C6.08003 9.96697 10.6034 11.3548 16 11.3548C21.3967 11.3548 25.92 9.96697 27.871 7.94065V10.8387ZM16 10.3226C8.89912 10.3226 4.12906 7.92052 4.12906 5.67742C4.12906 3.43432 8.89912 1.03226 16 1.03226C23.1009 1.03226 27.871 3.43432 27.871 5.67742C27.871 7.92052 23.1009 10.3226 16 10.3226Z" fill="#1E2534"/>
</svg>
