<svg width="32" height="32" viewBox="0 0 32 32" fill="none" xmlns="http://www.w3.org/2000/svg">
<path d="M21.5172 8.82764H10.4827C9.5702 8.82764 8.82758 9.57026 8.82758 10.4828V21.5173C8.82758 22.4298 9.5702 23.1725 10.4827 23.1725H21.5172C22.4298 23.1725 23.1724 22.4298 23.1724 21.5173V10.4828C23.1724 9.57026 22.4298 8.82764 21.5172 8.82764ZM22.069 21.5173C22.069 21.8218 21.8218 22.069 21.5172 22.069H10.4827C10.1787 22.069 9.93102 21.8218 9.93102 21.5173V10.4828C9.93102 10.1783 10.1787 9.93108 10.4827 9.93108H21.5172C21.8218 9.93108 22.069 10.1783 22.069 10.4828V21.5173Z" fill="#1E2534"/>
<path d="M31.4483 12.1379C31.7534 12.1379 32 11.8913 32 11.5862C32 11.2811 31.7534 11.0345 31.4483 11.0345H27.5862V7.72414H31.4483C31.7534 7.72414 32 7.47752 32 7.17241C32 6.86731 31.7534 6.62069 31.4483 6.62069H27.5305C27.3103 5.54152 26.4585 4.68965 25.3793 4.46952V0.551724C25.3793 0.246621 25.1327 0 24.8276 0C24.5225 0 24.2759 0.246621 24.2759 0.551724V4.41379H20.9655V0.551724C20.9655 0.246621 20.7189 0 20.4138 0C20.1087 0 19.8621 0.246621 19.8621 0.551724V4.41379H16.5517V0.551724C16.5517 0.246621 16.3046 0 16 0C15.6954 0 15.4483 0.246621 15.4483 0.551724V4.41379H12.1379V0.551724C12.1379 0.246621 11.8908 0 11.5862 0C11.2817 0 11.0345 0.246621 11.0345 0.551724V4.41379H7.72414V0.551724C7.72414 0.246621 7.47697 0 7.17241 0C6.86786 0 6.62069 0.246621 6.62069 0.551724V4.46952C5.54152 4.68965 4.68965 5.54152 4.46952 6.62069H0.551724C0.247172 6.62069 0 6.86731 0 7.17241C0 7.47752 0.247172 7.72414 0.551724 7.72414H4.41379V11.0345H0.551724C0.247172 11.0345 0 11.2811 0 11.5862C0 11.8913 0.247172 12.1379 0.551724 12.1379H4.41379V15.4483H0.551724C0.247172 15.4483 0 15.6949 0 16C0 16.3051 0.247172 16.5517 0.551724 16.5517H4.41379V19.8621H0.551724C0.247172 19.8621 0 20.1087 0 20.4138C0 20.7189 0.247172 20.9655 0.551724 20.9655H4.41379V24.2759H0.551724C0.247172 24.2759 0 24.5225 0 24.8276C0 25.1327 0.247172 25.3793 0.551724 25.3793H4.46952C4.68965 26.4585 5.54152 27.3103 6.62069 27.5305V31.4483C6.62069 31.7534 6.86786 32 7.17241 32C7.47697 32 7.72414 31.7534 7.72414 31.4483V27.5862H11.0345V31.4483C11.0345 31.7534 11.2817 32 11.5862 32C11.8908 32 12.1379 31.7534 12.1379 31.4483V27.5862H15.4483V31.4483C15.4483 31.7534 15.6954 32 16 32C16.3046 32 16.5517 31.7534 16.5517 31.4483V27.5862H19.8621V31.4483C19.8621 31.7534 20.1087 32 20.4138 32C20.7189 32 20.9655 31.7534 20.9655 31.4483V27.5862H24.2759V31.4483C24.2759 31.7534 24.5225 32 24.8276 32C25.1327 32 25.3793 31.7534 25.3793 31.4483V27.5305C26.4585 27.3103 27.3103 26.4585 27.5305 25.3793H31.4483C31.7534 25.3793 32 25.1327 32 24.8276C32 24.5225 31.7534 24.2759 31.4483 24.2759H27.5862V20.9655H31.4483C31.7534 20.9655 32 20.7189 32 20.4138C32 20.1087 31.7534 19.8621 31.4483 19.8621H27.5862V16.5517H31.4483C31.7534 16.5517 32 16.3051 32 16C32 15.6949 31.7534 15.4483 31.4483 15.4483H27.5862V12.1379H31.4483ZM26.4828 24.8276C26.4828 25.7401 25.7401 26.4828 24.8276 26.4828H7.17241C6.25986 26.4828 5.51724 25.7401 5.51724 24.8276V7.17241C5.51724 6.25986 6.25986 5.51724 7.17241 5.51724H24.8276C25.7401 5.51724 26.4828 6.25986 26.4828 7.17241V24.8276Z" fill="#1E2534"/>
<path d="M14.1832 11.1962C13.9675 10.9805 13.6188 10.9805 13.4031 11.1962L11.1962 13.4031C10.9804 13.6188 10.9804 13.9675 11.1962 14.1833C11.3037 14.2908 11.445 14.3449 11.5862 14.3449C11.7275 14.3449 11.8687 14.2908 11.9763 14.1833L14.1832 11.9764C14.3989 11.7606 14.3989 11.4119 14.1832 11.1962Z" fill="#1E2534"/>
<path d="M16.3901 13.403C16.1744 13.1873 15.8257 13.1873 15.6099 13.403L11.1962 17.8168C10.9804 18.0325 10.9804 18.3812 11.1962 18.5969C11.3037 18.7045 11.445 18.7586 11.5862 18.7586C11.7275 18.7586 11.8687 18.7045 11.9763 18.5969L16.3901 14.1831C16.6058 13.9674 16.6058 13.6187 16.3901 13.403Z" fill="#1E2534"/>
</svg>
