<svg width="233" height="50" viewBox="0 0 233 50" fill="none" xmlns="http://www.w3.org/2000/svg">
<path d="M116.589 20.5974C116.59 20.5268 116.592 20.4564 116.592 20.3855C116.592 13.6374 111.121 8.16684 104.373 8.16684C98.5577 8.16684 93.6918 12.2296 92.4574 17.6715C91.3065 17.0272 89.9806 16.6582 88.5677 16.6582C84.1592 16.6582 80.5854 20.2321 80.5854 24.6405C80.5854 24.8207 80.5936 24.9988 80.6053 25.1761C77.3325 26.391 75 29.5412 75 33.2369C75 37.9845 78.8488 41.8333 83.5964 41.8333H114.255C120.189 41.8333 125 37.0223 125 31.0878C125 25.955 121.401 21.6635 116.589 20.5974Z" fill="#EFF7FD"/>
<path d="M4.968 37C4.272 37 3.72 36.808 3.312 36.424C2.928 36.04 2.736 35.5 2.736 34.804V13.816C2.736 13.12 2.928 12.58 3.312 12.196C3.72 11.812 4.272 11.62 4.968 11.62H12.096C16.248 11.62 19.464 12.736 21.744 14.968C24.048 17.176 25.2 20.284 25.2 24.292C25.2 28.324 24.048 31.456 21.744 33.688C19.464 35.896 16.248 37 12.096 37H4.968ZM11.808 33.22C17.64 33.22 20.556 30.244 20.556 24.292C20.556 18.364 17.64 15.4 11.808 15.4H7.38V33.22H11.808ZM43.4126 32.176C43.8206 32.176 44.1446 32.332 44.3846 32.644C44.6486 32.956 44.7806 33.376 44.7806 33.904C44.7806 34.648 44.3366 35.272 43.4486 35.776C42.6326 36.232 41.7086 36.604 40.6766 36.892C39.6446 37.156 38.6606 37.288 37.7246 37.288C34.8926 37.288 32.6486 36.472 30.9926 34.84C29.3366 33.208 28.5086 30.976 28.5086 28.144C28.5086 26.344 28.8686 24.748 29.5886 23.356C30.3086 21.964 31.3166 20.884 32.6126 20.116C33.9326 19.348 35.4206 18.964 37.0766 18.964C38.6606 18.964 40.0406 19.312 41.2166 20.008C42.3926 20.704 43.3046 21.688 43.9526 22.96C44.6006 24.232 44.9246 25.732 44.9246 27.46C44.9246 28.492 44.4686 29.008 43.5566 29.008H32.9366C33.0806 30.664 33.5486 31.888 34.3406 32.68C35.1326 33.448 36.2846 33.832 37.7966 33.832C38.5646 33.832 39.2366 33.736 39.8126 33.544C40.4126 33.352 41.0846 33.088 41.8286 32.752C42.5486 32.368 43.0766 32.176 43.4126 32.176ZM37.1846 22.132C35.9606 22.132 34.9766 22.516 34.2326 23.284C33.5126 24.052 33.0806 25.156 32.9366 26.596H41.0726C41.0246 25.132 40.6646 24.028 39.9926 23.284C39.3206 22.516 38.3846 22.132 37.1846 22.132ZM60.6004 20.332C60.7924 19.9 61.0444 19.576 61.3564 19.36C61.6924 19.144 62.0524 19.036 62.4364 19.036C62.9884 19.036 63.4804 19.228 63.9124 19.612C64.3684 19.972 64.5964 20.428 64.5964 20.98C64.5964 21.268 64.5244 21.556 64.3804 21.844L57.7204 35.776C57.5044 36.232 57.1924 36.58 56.7844 36.82C56.4004 37.06 55.9684 37.18 55.4884 37.18C55.0324 37.18 54.5884 37.06 54.1564 36.82C53.7484 36.58 53.4364 36.232 53.2204 35.776L46.5244 21.844C46.4044 21.604 46.3444 21.328 46.3444 21.016C46.3444 20.464 46.5724 19.996 47.0284 19.612C47.5084 19.228 48.0484 19.036 48.6484 19.036C49.5124 19.036 50.1484 19.456 50.5564 20.296L55.5964 31.42L60.6004 20.332Z" fill="#EFF7FD"/>
<path d="M149.076 37.324C146.628 37.324 144.48 36.796 142.632 35.74C140.808 34.684 139.404 33.172 138.42 31.204C137.436 29.236 136.944 26.932 136.944 24.292C136.944 21.652 137.436 19.36 138.42 17.416C139.404 15.448 140.808 13.936 142.632 12.88C144.48 11.824 146.628 11.296 149.076 11.296C150.66 11.296 152.148 11.536 153.54 12.016C154.932 12.472 156.168 13.144 157.248 14.032C157.56 14.272 157.776 14.524 157.896 14.788C158.016 15.052 158.076 15.376 158.076 15.76C158.076 16.288 157.932 16.732 157.644 17.092C157.356 17.452 157.008 17.632 156.6 17.632C156.12 17.632 155.628 17.464 155.124 17.128C154.092 16.36 153.132 15.832 152.244 15.544C151.356 15.232 150.372 15.076 149.292 15.076C146.796 15.076 144.9 15.856 143.604 17.416C142.332 18.976 141.696 21.268 141.696 24.292C141.696 27.34 142.332 29.644 143.604 31.204C144.9 32.764 146.796 33.544 149.292 33.544C150.324 33.544 151.272 33.388 152.136 33.076C153.024 32.764 154.02 32.236 155.124 31.492C155.364 31.348 155.604 31.228 155.844 31.132C156.084 31.036 156.336 30.988 156.6 30.988C157.008 30.988 157.356 31.168 157.644 31.528C157.932 31.888 158.076 32.332 158.076 32.86C158.076 33.22 158.016 33.544 157.896 33.832C157.776 34.096 157.56 34.348 157.248 34.588C156.168 35.476 154.932 36.16 153.54 36.64C152.148 37.096 150.66 37.324 149.076 37.324ZM163.97 37.216C163.322 37.216 162.782 37.036 162.35 36.676C161.942 36.292 161.738 35.752 161.738 35.056V13.564C161.738 12.868 161.942 12.34 162.35 11.98C162.782 11.62 163.322 11.44 163.97 11.44C164.618 11.44 165.158 11.62 165.59 11.98C166.022 12.34 166.238 12.868 166.238 13.564V35.056C166.238 35.752 166.022 36.292 165.59 36.676C165.158 37.036 164.618 37.216 163.97 37.216ZM178.907 37.288C177.107 37.288 175.523 36.916 174.155 36.172C172.811 35.428 171.767 34.36 171.023 32.968C170.279 31.576 169.907 29.956 169.907 28.108C169.907 26.26 170.279 24.652 171.023 23.284C171.767 21.892 172.811 20.824 174.155 20.08C175.523 19.336 177.107 18.964 178.907 18.964C180.707 18.964 182.279 19.336 183.623 20.08C184.991 20.824 186.035 21.892 186.755 23.284C187.499 24.652 187.871 26.26 187.871 28.108C187.871 29.956 187.499 31.576 186.755 32.968C186.035 34.36 184.991 35.428 183.623 36.172C182.279 36.916 180.707 37.288 178.907 37.288ZM178.871 33.796C180.335 33.796 181.451 33.316 182.219 32.356C182.987 31.396 183.371 29.98 183.371 28.108C183.371 26.26 182.987 24.856 182.219 23.896C181.451 22.912 180.347 22.42 178.907 22.42C177.467 22.42 176.351 22.912 175.559 23.896C174.791 24.856 174.407 26.26 174.407 28.108C174.407 29.98 174.791 31.396 175.559 32.356C176.327 33.316 177.431 33.796 178.871 33.796ZM205.482 19.036C206.178 19.036 206.73 19.228 207.138 19.612C207.546 19.996 207.75 20.512 207.75 21.16V35.128C207.75 35.752 207.534 36.256 207.102 36.64C206.694 37.024 206.154 37.216 205.482 37.216C204.834 37.216 204.318 37.036 203.934 36.676C203.55 36.316 203.358 35.824 203.358 35.2V34.3C202.806 35.26 202.062 36.004 201.126 36.532C200.19 37.036 199.134 37.288 197.958 37.288C193.638 37.288 191.478 34.864 191.478 30.016V21.16C191.478 20.512 191.682 19.996 192.09 19.612C192.498 19.228 193.038 19.036 193.71 19.036C194.406 19.036 194.958 19.228 195.366 19.612C195.774 19.996 195.978 20.512 195.978 21.16V30.052C195.978 31.3 196.23 32.224 196.734 32.824C197.238 33.424 198.03 33.724 199.11 33.724C200.358 33.724 201.354 33.316 202.098 32.5C202.866 31.66 203.25 30.556 203.25 29.188V21.16C203.25 20.512 203.454 19.996 203.862 19.612C204.27 19.228 204.81 19.036 205.482 19.036ZM227.122 11.44C227.794 11.44 228.346 11.632 228.778 12.016C229.21 12.4 229.426 12.904 229.426 13.528V35.056C229.426 35.704 229.222 36.22 228.814 36.604C228.406 36.988 227.866 37.18 227.194 37.18C226.522 37.18 225.982 36.988 225.574 36.604C225.166 36.22 224.962 35.704 224.962 35.056V34.156C224.434 35.14 223.666 35.908 222.658 36.46C221.674 37.012 220.546 37.288 219.274 37.288C217.762 37.288 216.406 36.904 215.206 36.136C214.03 35.368 213.106 34.288 212.434 32.896C211.786 31.48 211.462 29.86 211.462 28.036C211.462 26.212 211.786 24.616 212.434 23.248C213.106 21.88 214.03 20.824 215.206 20.08C216.382 19.336 217.738 18.964 219.274 18.964C220.546 18.964 221.674 19.228 222.658 19.756C223.642 20.284 224.398 21.028 224.926 21.988V13.456C224.926 12.856 225.118 12.376 225.502 12.016C225.91 11.632 226.45 11.44 227.122 11.44ZM220.462 33.796C221.902 33.796 223.006 33.304 223.774 32.32C224.566 31.336 224.962 29.932 224.962 28.108C224.962 26.284 224.566 24.892 223.774 23.932C223.006 22.948 221.914 22.456 220.498 22.456C219.058 22.456 217.942 22.936 217.15 23.896C216.358 24.856 215.962 26.236 215.962 28.036C215.962 29.86 216.358 31.276 217.15 32.284C217.942 33.292 219.046 33.796 220.462 33.796Z" fill="#EFF7FD"/>
</svg>
