<svg width="180" height="120" viewBox="0 0 180 120" fill="none" xmlns="http://www.w3.org/2000/svg">
<path d="M62.6094 39.9531C62.4844 39.5156 62.3594 39.1406 62.2344 38.8281C62.1094 38.5 61.9766 38.2109 61.8359 37.9609C61.7109 37.6953 61.5625 37.4609 61.3906 37.2578C61.2344 37.0547 61.0469 36.8438 60.8281 36.625C60.2969 36.0781 59.6875 35.6719 59 35.4062C58.3281 35.125 57.6094 34.9844 56.8438 34.9844C55.875 34.9844 54.9922 35.1719 54.1953 35.5469C53.4141 35.9219 52.7422 36.4609 52.1797 37.1641C51.6328 37.8516 51.2109 38.6875 50.9141 39.6719C50.6172 40.6562 50.4688 41.75 50.4688 42.9531C50.4688 44.5156 50.6797 45.8828 51.1016 47.0547C51.5234 48.2266 52.125 49.1406 52.9062 49.7969C54.0781 50.7344 55.4766 51.2031 57.1016 51.2031C58.2109 51.2031 59.2344 50.9922 60.1719 50.5703C61.1094 50.1484 62.0781 49.4609 63.0781 48.5078L63.5469 48.9766C62.7344 50.0547 61.6953 50.8906 60.4297 51.4844C59.1797 52.0781 57.7891 52.375 56.2578 52.375C54.9297 52.375 53.7188 52.1562 52.625 51.7188C51.5312 51.2812 50.5938 50.6719 49.8125 49.8906C49.0312 49.0938 48.4219 48.1406 47.9844 47.0312C47.5625 45.9219 47.3516 44.6875 47.3516 43.3281C47.3516 41.7812 47.6172 40.3906 48.1484 39.1562C48.6797 37.9062 49.4609 36.8594 50.4922 36.0156C51.3047 35.3594 52.2188 34.8516 53.2344 34.4922C54.25 34.1172 55.2734 33.9297 56.3047 33.9297C57.6328 33.9297 58.9453 34.1484 60.2422 34.5859C60.6797 34.7422 61.0312 34.8203 61.2969 34.8203C61.5625 34.8203 61.7891 34.7422 61.9766 34.5859C62.1797 34.4297 62.3203 34.2109 62.3984 33.9297H62.9609L63.2188 39.9531H62.6094ZM64.9531 34.8906C65.4219 34.7812 65.8359 34.6875 66.1953 34.6094C66.5703 34.5156 66.9219 34.4219 67.25 34.3281C67.5938 34.2344 67.9219 34.1406 68.2344 34.0469C68.5469 33.9531 68.875 33.8438 69.2188 33.7188L69.3359 33.7891V49.75C69.3359 50.125 69.3594 50.4297 69.4062 50.6641C69.4531 50.8828 69.5469 51.0625 69.6875 51.2031C69.8281 51.3281 70.0234 51.4219 70.2734 51.4844C70.5391 51.5469 70.8828 51.5938 71.3047 51.625V52H65.0234V51.625C65.4453 51.5781 65.7891 51.5234 66.0547 51.4609C66.3203 51.3828 66.5312 51.2734 66.6875 51.1328C66.8438 50.9766 66.9453 50.7812 66.9922 50.5469C67.0547 50.3125 67.0859 50.0156 67.0859 49.6562V36.9062C67.0859 36.2812 67 35.8594 66.8281 35.6406C66.6719 35.4062 66.3828 35.2891 65.9609 35.2891C65.8359 35.2891 65.6953 35.2969 65.5391 35.3125C65.3984 35.3125 65.2578 35.3203 65.1172 35.3359H64.9531V34.8906ZM76.6953 39.7656V49.2812C76.6953 49.7656 76.7109 50.1562 76.7422 50.4531C76.7891 50.7344 76.8828 50.9609 77.0234 51.1328C77.1641 51.2891 77.3594 51.3984 77.6094 51.4609C77.875 51.5234 78.2344 51.5781 78.6875 51.625V52H72.3359V51.625C72.8047 51.5938 73.1719 51.5469 73.4375 51.4844C73.7188 51.4062 73.9297 51.2891 74.0703 51.1328C74.2266 50.9609 74.3281 50.7344 74.375 50.4531C74.4219 50.1562 74.4453 49.7656 74.4453 49.2812V43.0703C74.4453 42.4766 74.375 42.0625 74.2344 41.8281C74.1094 41.5781 73.8906 41.4531 73.5781 41.4531C73.4531 41.4531 73.3047 41.4609 73.1328 41.4766C72.9766 41.4922 72.8125 41.5156 72.6406 41.5469L72.4531 41.5703V41.1719L76.5781 39.6953L76.6953 39.7656ZM73.6484 38.4531L77.6094 34.4922C77.8438 34.2578 78.0312 34.0938 78.1719 34C78.3281 33.9062 78.5156 33.8594 78.7344 33.8594C79.3594 33.8594 79.6719 34.1484 79.6719 34.7266C79.6719 35.1328 79.3984 35.5078 78.8516 35.8516L74.75 38.4531H73.6484ZM79.7891 40.8906C80.5234 40.6875 81.1562 40.5 81.6875 40.3281C82.2344 40.1562 82.8281 39.9453 83.4688 39.6953L83.6797 39.7422V41.875C84.1328 41.4531 84.5312 41.1016 84.875 40.8203C85.2188 40.5391 85.5312 40.3203 85.8125 40.1641C86.1094 39.9922 86.3906 39.875 86.6562 39.8125C86.9375 39.7344 87.2344 39.6953 87.5469 39.6953C88.5312 39.6953 89.3047 40.0469 89.8672 40.75C90.4297 41.4531 90.7109 42.4375 90.7109 43.7031V49.8438C90.7109 50.4844 90.8203 50.9219 91.0391 51.1562C91.2578 51.3906 91.6875 51.5469 92.3281 51.625V52H86.7734V51.625C87.1016 51.5938 87.375 51.5391 87.5938 51.4609C87.8125 51.3828 87.9844 51.2578 88.1094 51.0859C88.25 50.9141 88.3438 50.6875 88.3906 50.4062C88.4375 50.125 88.4609 49.7734 88.4609 49.3516V43.75C88.4609 42.0312 87.8125 41.1719 86.5156 41.1719C86.2969 41.1719 86.0859 41.1953 85.8828 41.2422C85.6797 41.2891 85.4688 41.3672 85.25 41.4766C85.0469 41.5859 84.8203 41.7422 84.5703 41.9453C84.3359 42.1484 84.0547 42.3984 83.7266 42.6953V50.2188C83.7266 50.7031 83.8516 51.0469 84.1016 51.25C84.3516 51.4375 84.8203 51.5625 85.5078 51.625V52H79.8359V51.625C80.1797 51.5938 80.4531 51.5469 80.6562 51.4844C80.875 51.4062 81.0469 51.2891 81.1719 51.1328C81.2969 50.9766 81.3828 50.7812 81.4297 50.5469C81.4766 50.2969 81.5 49.9844 81.5 49.6094V42.9531C81.5 42.2969 81.4297 41.8516 81.2891 41.6172C81.1484 41.3672 80.8906 41.2422 80.5156 41.2422C80.2344 41.2422 79.9922 41.2812 79.7891 41.3594V40.8906ZM97.5312 39.7656V49.2812C97.5312 49.7656 97.5469 50.1562 97.5781 50.4531C97.625 50.7344 97.7188 50.9609 97.8594 51.1328C98 51.2891 98.1953 51.3984 98.4453 51.4609C98.7109 51.5234 99.0703 51.5781 99.5234 51.625V52H93.1719V51.625C93.6406 51.5938 94.0078 51.5469 94.2734 51.4844C94.5547 51.4062 94.7656 51.2891 94.9062 51.1328C95.0625 50.9609 95.1641 50.7344 95.2109 50.4531C95.2578 50.1562 95.2812 49.7656 95.2812 49.2812V43.0703C95.2812 42.4766 95.2109 42.0625 95.0703 41.8281C94.9453 41.5781 94.7266 41.4531 94.4141 41.4531C94.2891 41.4531 94.1406 41.4609 93.9688 41.4766C93.8125 41.4922 93.6484 41.5156 93.4766 41.5469L93.2891 41.5703V41.1719L97.4141 39.6953L97.5312 39.7656ZM96.1953 33.7188C96.5703 33.7188 96.8906 33.8594 97.1562 34.1406C97.4219 34.4062 97.5547 34.7266 97.5547 35.1016C97.5547 35.4922 97.4219 35.8203 97.1562 36.0859C96.9062 36.3359 96.5781 36.4609 96.1719 36.4609C95.7812 36.4609 95.4609 36.3359 95.2109 36.0859C94.9609 35.8203 94.8359 35.4922 94.8359 35.1016C94.8359 34.7266 94.9688 34.4062 95.2344 34.1406C95.5 33.8594 95.8203 33.7188 96.1953 33.7188ZM111.219 48.0625C111 48.4844 110.797 48.8516 110.609 49.1641C110.438 49.4609 110.266 49.7344 110.094 49.9844C109.938 50.2188 109.773 50.4297 109.602 50.6172C109.43 50.8047 109.242 50.9766 109.039 51.1328C108.102 51.8828 107.062 52.2578 105.922 52.2578C105.188 52.2578 104.508 52.1172 103.883 51.8359C103.258 51.5391 102.719 51.125 102.266 50.5938C101.828 50.0625 101.484 49.4375 101.234 48.7188C100.984 48 100.859 47.2031 100.859 46.3281C100.859 45.2188 101.047 44.2031 101.422 43.2812C101.812 42.3438 102.367 41.5781 103.086 40.9844C103.633 40.5312 104.211 40.1953 104.82 39.9766C105.445 39.7422 106.078 39.625 106.719 39.625C107.281 39.625 107.812 39.7031 108.312 39.8594C108.812 40 109.25 40.1953 109.625 40.4453C110 40.6953 110.297 40.9922 110.516 41.3359C110.734 41.6641 110.844 42.0156 110.844 42.3906C110.844 42.7031 110.719 42.9766 110.469 43.2109C110.234 43.4453 109.945 43.5625 109.602 43.5625C109.289 43.5625 109.023 43.4453 108.805 43.2109C108.586 42.9766 108.422 42.6641 108.312 42.2734L108.148 41.6875C108.023 41.1875 107.844 40.8516 107.609 40.6797C107.391 40.5078 107.039 40.4219 106.555 40.4219C106.008 40.4219 105.508 40.5391 105.055 40.7734C104.617 40.9922 104.242 41.3125 103.93 41.7344C103.617 42.1562 103.367 42.6562 103.18 43.2344C103.008 43.8125 102.922 44.4531 102.922 45.1562C102.922 45.9062 103.023 46.6016 103.227 47.2422C103.43 47.8828 103.711 48.4297 104.07 48.8828C104.43 49.3359 104.859 49.6953 105.359 49.9609C105.875 50.2109 106.438 50.3359 107.047 50.3359C107.812 50.3359 108.477 50.1562 109.039 49.7969C109.602 49.4219 110.203 48.7656 110.844 47.8281L111.219 48.0625ZM121.93 49.1875C121.93 49.7812 121.984 50.1953 122.094 50.4297C122.203 50.6484 122.414 50.7578 122.727 50.7578C123.086 50.7578 123.477 50.5938 123.898 50.2656V50.9453C123.445 51.4453 123.047 51.7891 122.703 51.9766C122.359 52.1641 121.961 52.2578 121.508 52.2578C120.961 52.2578 120.555 52.1094 120.289 51.8125C120.039 51.5 119.883 50.9844 119.82 50.2656C119.008 50.9688 118.297 51.4766 117.688 51.7891C117.078 52.1016 116.484 52.2578 115.906 52.2578C115.062 52.2578 114.375 51.9922 113.844 51.4609C113.328 50.9297 113.07 50.2422 113.07 49.3984C113.07 48.9766 113.148 48.5547 113.305 48.1328C113.477 47.6953 113.719 47.3438 114.031 47.0781C114.312 46.8281 114.57 46.6172 114.805 46.4453C115.055 46.2578 115.375 46.0703 115.766 45.8828C116.156 45.6797 116.664 45.4531 117.289 45.2031C117.914 44.9531 118.742 44.6172 119.773 44.1953V42.4844C119.773 41.75 119.594 41.1953 119.234 40.8203C118.891 40.4453 118.391 40.2578 117.734 40.2578C117.188 40.2578 116.727 40.3906 116.352 40.6562C115.992 40.9062 115.812 41.2109 115.812 41.5703C115.812 41.7109 115.828 41.8906 115.859 42.1094C115.906 42.3281 115.93 42.5078 115.93 42.6484C115.93 42.9609 115.805 43.2266 115.555 43.4453C115.32 43.6641 115.047 43.7734 114.734 43.7734C114.422 43.7734 114.148 43.6641 113.914 43.4453C113.695 43.2109 113.586 42.9375 113.586 42.625C113.586 42.2812 113.68 41.9297 113.867 41.5703C114.07 41.2109 114.344 40.8906 114.688 40.6094C115.047 40.2969 115.523 40.0547 116.117 39.8828C116.727 39.7109 117.383 39.625 118.086 39.625C118.898 39.625 119.578 39.7656 120.125 40.0469C120.688 40.3125 121.117 40.6875 121.414 41.1719C121.602 41.4844 121.734 41.8516 121.812 42.2734C121.891 42.6797 121.93 43.2344 121.93 43.9375V49.1875ZM119.773 44.8516C118.961 45.1484 118.266 45.4375 117.688 45.7188C117.125 45.9844 116.664 46.2656 116.305 46.5625C115.961 46.8438 115.711 47.1484 115.555 47.4766C115.398 47.8047 115.32 48.1641 115.32 48.5547V48.6719C115.32 48.9531 115.367 49.2266 115.461 49.4922C115.555 49.7422 115.68 49.9609 115.836 50.1484C116.008 50.3359 116.203 50.4844 116.422 50.5938C116.641 50.7031 116.867 50.7578 117.102 50.7578C117.383 50.7578 117.695 50.7031 118.039 50.5938C118.398 50.4688 118.734 50.3203 119.047 50.1484C119.359 49.9766 119.555 49.7969 119.633 49.6094C119.727 49.4219 119.773 49.125 119.773 48.7188V44.8516ZM131.961 43.6094C131.664 42.4062 131.297 41.5547 130.859 41.0547C130.422 40.5547 129.82 40.3047 129.055 40.3047C128.43 40.3047 127.93 40.4766 127.555 40.8203C127.18 41.1484 126.992 41.5859 126.992 42.1328C126.992 42.8984 127.375 43.5078 128.141 43.9609L131.023 45.6719C131.836 46.1562 132.414 46.6406 132.758 47.125C133.102 47.5938 133.273 48.1641 133.273 48.8359C133.273 49.3047 133.172 49.75 132.969 50.1719C132.766 50.5938 132.492 50.9609 132.148 51.2734C131.82 51.5703 131.43 51.8125 130.977 52C130.523 52.1719 130.039 52.2578 129.523 52.2578C129.242 52.2578 128.938 52.2344 128.609 52.1875C128.281 52.1562 127.922 52.0938 127.531 52C127.219 51.9219 126.977 51.8672 126.805 51.8359C126.633 51.8047 126.469 51.7891 126.312 51.7891C126.156 51.7891 126.039 51.8125 125.961 51.8594C125.883 51.9062 125.797 51.9922 125.703 52.1172H125.352V47.9453H125.773C125.93 48.6328 126.109 49.2109 126.312 49.6797C126.516 50.1484 126.75 50.5312 127.016 50.8281C127.281 51.125 127.594 51.3438 127.953 51.4844C128.312 51.6094 128.719 51.6719 129.172 51.6719C129.875 51.6719 130.422 51.5 130.812 51.1562C131.219 50.8125 131.422 50.3438 131.422 49.75C131.422 48.9531 130.953 48.2891 130.016 47.7578L128.469 46.8672C127.891 46.5391 127.398 46.2266 126.992 45.9297C126.602 45.6328 126.281 45.3359 126.031 45.0391C125.781 44.7266 125.602 44.4062 125.492 44.0781C125.383 43.75 125.328 43.3984 125.328 43.0234C125.328 42.5391 125.414 42.0938 125.586 41.6875C125.773 41.2812 126.023 40.9297 126.336 40.6328C126.664 40.3359 127.055 40.1094 127.508 39.9531C127.961 39.7969 128.461 39.7188 129.008 39.7188C129.633 39.7188 130.234 39.8281 130.812 40.0469C131.141 40.1875 131.391 40.2578 131.562 40.2578C131.625 40.2578 131.672 40.2422 131.703 40.2109C131.734 40.1797 131.812 40.1094 131.938 40L131.961 39.9531H132.289L132.383 43.6094H131.961ZM31.1328 90H16.6953V89.5078C17.1797 89.4766 17.5703 89.4219 17.8672 89.3438C18.1797 89.2656 18.4141 89.1406 18.5703 88.9688C18.7422 88.7969 18.8594 88.5625 18.9219 88.2656C18.9844 87.9688 19.0156 87.5859 19.0156 87.1172V75.2109C19.0156 74.7422 18.9844 74.3594 18.9219 74.0625C18.875 73.7656 18.7656 73.5312 18.5938 73.3594C18.4219 73.1875 18.1797 73.0625 17.8672 72.9844C17.5703 72.9062 17.1797 72.8516 16.6953 72.8203V72.2812H30.8984L30.9453 76.125H30.3125C30.1875 75.5156 30.0469 75.0312 29.8906 74.6719C29.7344 74.2969 29.5078 74.0078 29.2109 73.8047C28.9297 73.6016 28.5469 73.4688 28.0625 73.4062C27.5938 73.3438 26.9844 73.3125 26.2344 73.3125H22.625C22.2656 73.3125 22.0234 73.3672 21.8984 73.4766C21.7891 73.5859 21.7344 73.8359 21.7344 74.2266V80.1562H25.8359C26.3828 80.1562 26.8281 80.125 27.1719 80.0625C27.5156 80 27.7891 79.8828 27.9922 79.7109C28.2109 79.5234 28.375 79.2656 28.4844 78.9375C28.5938 78.6094 28.6953 78.1719 28.7891 77.625H29.4219V83.8359H28.7891C28.6953 83.2734 28.5938 82.8281 28.4844 82.5C28.375 82.1562 28.2188 81.8984 28.0156 81.7266C27.8125 81.5391 27.5391 81.4141 27.1953 81.3516C26.8516 81.2891 26.3984 81.2578 25.8359 81.2578H21.7344V87.8672C21.7344 88.1328 21.75 88.3281 21.7812 88.4531C21.8125 88.5781 21.8672 88.6719 21.9453 88.7344C22.0703 88.8125 22.3672 88.8828 22.8359 88.9453C23.3203 88.9922 23.8906 89.0156 24.5469 89.0156H25.2969C26.25 89.0156 27.0469 88.9688 27.6875 88.875C28.3438 88.7812 28.8984 88.6016 29.3516 88.3359C29.8203 88.0703 30.2266 87.7109 30.5703 87.2578C30.9141 86.8047 31.25 86.2109 31.5781 85.4766H32.3516L31.1328 90ZM45.5234 89.0625C44.8359 89.2344 44.2188 89.4062 43.6719 89.5781C43.125 89.75 42.5078 89.9688 41.8203 90.2344L41.75 90.1875V87.9609L40.5781 89.1094C40.2188 89.4844 39.7969 89.7734 39.3125 89.9766C38.8281 90.1641 38.3359 90.2578 37.8359 90.2578C36.8516 90.2578 36.0625 89.9453 35.4688 89.3203C34.8906 88.6953 34.6016 87.8516 34.6016 86.7891V80.0859C34.6016 79.4609 34.4844 79.0312 34.25 78.7969C34.0312 78.5625 33.5938 78.4219 32.9375 78.375V77.9062H36.8281V86.6953C36.8281 87.2578 37.0156 87.7422 37.3906 88.1484C37.7656 88.5391 38.2188 88.7344 38.75 88.7344C39.1562 88.7344 39.5625 88.6562 39.9688 88.5C40.3906 88.3281 40.7812 88.0781 41.1406 87.75C41.3125 87.625 41.4375 87.4609 41.5156 87.2578C41.5938 87.0391 41.6328 86.75 41.6328 86.3906V80.0625C41.6328 79.7344 41.6016 79.4688 41.5391 79.2656C41.4922 79.0469 41.3906 78.875 41.2344 78.75C41.0938 78.625 40.8906 78.5391 40.625 78.4922C40.3594 78.4297 40.0234 78.3906 39.6172 78.375V77.9062H43.8594V87.1406C43.8594 87.7656 43.9609 88.1797 44.1641 88.3828C44.3672 88.5703 44.7734 88.6641 45.3828 88.6641H45.5234V89.0625ZM55.1797 90.1875V88.4531C54.7266 89.1094 54.2266 89.5781 53.6797 89.8594C53.1484 90.125 52.5078 90.2578 51.7578 90.2578C51.0078 90.2578 50.3281 90.125 49.7188 89.8594C49.1094 89.5781 48.5859 89.1875 48.1484 88.6875C47.7266 88.1719 47.3906 87.5625 47.1406 86.8594C46.9062 86.1562 46.7891 85.375 46.7891 84.5156C46.7891 83.5625 46.9375 82.6719 47.2344 81.8438C47.5312 81.0156 47.9297 80.2891 48.4297 79.6641C48.9297 79.0391 49.5156 78.5469 50.1875 78.1875C50.875 77.8281 51.6016 77.6484 52.3672 77.6484C52.9141 77.6484 53.3906 77.7344 53.7969 77.9062C54.2031 78.0625 54.6641 78.3594 55.1797 78.7969V74.6719C55.1797 74.125 55.0938 73.7578 54.9219 73.5703C54.7656 73.3828 54.4375 73.2891 53.9375 73.2891C53.8281 73.2891 53.7266 73.2969 53.6328 73.3125C53.5547 73.3125 53.4609 73.3203 53.3516 73.3359V72.8672C53.7734 72.7578 54.1562 72.6641 54.5 72.5859C54.8438 72.4922 55.1641 72.4062 55.4609 72.3281C55.7734 72.2344 56.0703 72.1406 56.3516 72.0469C56.6484 71.9531 56.9609 71.8438 57.2891 71.7188L57.4297 71.7891V86.9531C57.4297 87.5781 57.5 87.9922 57.6406 88.1953C57.7969 88.3828 58.1172 88.4766 58.6016 88.4766C58.6797 88.4766 58.7734 88.4766 58.8828 88.4766C59.0078 88.4609 59.125 88.4531 59.2344 88.4531V88.875L55.2969 90.2578L55.1797 90.1875ZM55.1797 81.0703C55.1797 80.7266 55.1016 80.3984 54.9453 80.0859C54.8047 79.7578 54.6094 79.4688 54.3594 79.2188C54.1094 78.9688 53.8125 78.7734 53.4688 78.6328C53.1406 78.4766 52.7969 78.3984 52.4375 78.3984C51.9375 78.3984 51.4766 78.5234 51.0547 78.7734C50.6484 79.0078 50.2969 79.3516 50 79.8047C49.7188 80.2422 49.5 80.7734 49.3438 81.3984C49.1875 82.0078 49.1094 82.6875 49.1094 83.4375C49.1094 84.2656 49.1953 85.0156 49.3672 85.6875C49.5391 86.3594 49.7812 86.9297 50.0938 87.3984C50.4219 87.8672 50.8125 88.2344 51.2656 88.5C51.7188 88.75 52.2266 88.875 52.7891 88.875C53.6328 88.875 54.2891 88.5938 54.7578 88.0312C55.0391 87.7188 55.1797 87.4688 55.1797 87.2812V81.0703ZM70.8125 85.8047C70.25 87.2734 69.4844 88.3828 68.5156 89.1328C67.5625 89.8828 66.4375 90.2578 65.1406 90.2578C64.375 90.2578 63.6797 90.1172 63.0547 89.8359C62.4453 89.5547 61.9219 89.1562 61.4844 88.6406C61.0469 88.125 60.7109 87.5 60.4766 86.7656C60.2422 86.0312 60.125 85.2031 60.125 84.2812C60.125 83.2969 60.2578 82.3984 60.5234 81.5859C60.8047 80.7734 61.1875 80.0781 61.6719 79.5C62.1719 78.9062 62.7656 78.4453 63.4531 78.1172C64.1406 77.7891 64.8984 77.625 65.7266 77.625C66.4297 77.625 67.0703 77.7578 67.6484 78.0234C68.2422 78.2891 68.7422 78.6641 69.1484 79.1484C69.3203 79.3672 69.4609 79.5859 69.5703 79.8047C69.6953 80.0234 69.7969 80.2656 69.875 80.5312C69.9688 80.7969 70.0469 81.0938 70.1094 81.4219C70.1719 81.75 70.2344 82.125 70.2969 82.5469H62.0703C62.1016 83.4062 62.1719 84.1172 62.2812 84.6797C62.4062 85.2266 62.6016 85.7578 62.8672 86.2734C63.6328 87.7109 64.7578 88.4297 66.2422 88.4297C67.1016 88.4297 67.8438 88.2188 68.4688 87.7969C69.1094 87.375 69.75 86.6562 70.3906 85.6406L70.8125 85.8047ZM67.5781 81.6562C67.4062 80.5 67.125 79.7031 66.7344 79.2656C66.3594 78.8125 65.7656 78.5859 64.9531 78.5859C64.125 78.5859 63.4766 78.8281 63.0078 79.3125C62.5547 79.7969 62.2578 80.5781 62.1172 81.6562H67.5781ZM79.3438 81.6094C79.0469 80.4062 78.6797 79.5547 78.2422 79.0547C77.8047 78.5547 77.2031 78.3047 76.4375 78.3047C75.8125 78.3047 75.3125 78.4766 74.9375 78.8203C74.5625 79.1484 74.375 79.5859 74.375 80.1328C74.375 80.8984 74.7578 81.5078 75.5234 81.9609L78.4062 83.6719C79.2188 84.1562 79.7969 84.6406 80.1406 85.125C80.4844 85.5938 80.6562 86.1641 80.6562 86.8359C80.6562 87.3047 80.5547 87.75 80.3516 88.1719C80.1484 88.5938 79.875 88.9609 79.5312 89.2734C79.2031 89.5703 78.8125 89.8125 78.3594 90C77.9062 90.1719 77.4219 90.2578 76.9062 90.2578C76.625 90.2578 76.3203 90.2344 75.9922 90.1875C75.6641 90.1562 75.3047 90.0938 74.9141 90C74.6016 89.9219 74.3594 89.8672 74.1875 89.8359C74.0156 89.8047 73.8516 89.7891 73.6953 89.7891C73.5391 89.7891 73.4219 89.8125 73.3438 89.8594C73.2656 89.9062 73.1797 89.9922 73.0859 90.1172H72.7344V85.9453H73.1562C73.3125 86.6328 73.4922 87.2109 73.6953 87.6797C73.8984 88.1484 74.1328 88.5312 74.3984 88.8281C74.6641 89.125 74.9766 89.3438 75.3359 89.4844C75.6953 89.6094 76.1016 89.6719 76.5547 89.6719C77.2578 89.6719 77.8047 89.5 78.1953 89.1562C78.6016 88.8125 78.8047 88.3438 78.8047 87.75C78.8047 86.9531 78.3359 86.2891 77.3984 85.7578L75.8516 84.8672C75.2734 84.5391 74.7812 84.2266 74.375 83.9297C73.9844 83.6328 73.6641 83.3359 73.4141 83.0391C73.1641 82.7266 72.9844 82.4062 72.875 82.0781C72.7656 81.75 72.7109 81.3984 72.7109 81.0234C72.7109 80.5391 72.7969 80.0938 72.9688 79.6875C73.1562 79.2812 73.4062 78.9297 73.7188 78.6328C74.0469 78.3359 74.4375 78.1094 74.8906 77.9531C75.3438 77.7969 75.8438 77.7188 76.3906 77.7188C77.0156 77.7188 77.6172 77.8281 78.1953 78.0469C78.5234 78.1875 78.7734 78.2578 78.9453 78.2578C79.0078 78.2578 79.0547 78.2422 79.0859 78.2109C79.1172 78.1797 79.1953 78.1094 79.3203 78L79.3438 77.9531H79.6719L79.7656 81.6094H79.3438ZM94.2031 87.1172C94.2031 87.6016 94.2344 88 94.2969 88.3125C94.3594 88.6094 94.4766 88.8438 94.6484 89.0156C94.8359 89.1875 95.0938 89.3125 95.4219 89.3906C95.75 89.4531 96.1797 89.4922 96.7109 89.5078V90H89.2109V89.5078C89.7266 89.4609 90.125 89.3984 90.4062 89.3203C90.7031 89.2422 90.9297 89.1094 91.0859 88.9219C91.2422 88.7344 91.3359 88.4766 91.3672 88.1484C91.4141 87.8047 91.4375 87.3516 91.4375 86.7891V75.2109C91.4375 74.7266 91.4141 74.3438 91.3672 74.0625C91.3203 73.7656 91.2188 73.5391 91.0625 73.3828C90.9062 73.2109 90.6797 73.0859 90.3828 73.0078C90.0859 72.9297 89.6953 72.8672 89.2109 72.8203V72.2812H96.2656C97.5938 72.2812 98.7891 72.4688 99.8516 72.8438C100.93 73.2188 101.742 73.7109 102.289 74.3203C102.961 75.1172 103.297 76.0547 103.297 77.1328C103.297 78.0234 103.062 78.8516 102.594 79.6172C102.141 80.3672 101.516 80.9609 100.719 81.3984C100.141 81.7109 99.4766 81.9375 98.7266 82.0781C97.9922 82.2188 97.0938 82.2891 96.0312 82.2891C95.6875 82.2891 95.3828 82.2891 95.1172 82.2891C94.8672 82.2734 94.5625 82.2578 94.2031 82.2422V87.1172ZM94.2031 81.1406C94.5156 81.1719 94.7734 81.1953 94.9766 81.2109C95.1953 81.2266 95.4375 81.2344 95.7031 81.2344C98.8125 81.2344 100.367 79.9219 100.367 77.2969C100.367 75.9062 99.9375 74.8906 99.0781 74.25C98.2344 73.6094 96.8984 73.2891 95.0703 73.2891C94.7109 73.2891 94.4766 73.3516 94.3672 73.4766C94.2578 73.5859 94.2031 73.8281 94.2031 74.2031V81.1406ZM115.016 85.8047C114.453 87.2734 113.688 88.3828 112.719 89.1328C111.766 89.8828 110.641 90.2578 109.344 90.2578C108.578 90.2578 107.883 90.1172 107.258 89.8359C106.648 89.5547 106.125 89.1562 105.688 88.6406C105.25 88.125 104.914 87.5 104.68 86.7656C104.445 86.0312 104.328 85.2031 104.328 84.2812C104.328 83.2969 104.461 82.3984 104.727 81.5859C105.008 80.7734 105.391 80.0781 105.875 79.5C106.375 78.9062 106.969 78.4453 107.656 78.1172C108.344 77.7891 109.102 77.625 109.93 77.625C110.633 77.625 111.273 77.7578 111.852 78.0234C112.445 78.2891 112.945 78.6641 113.352 79.1484C113.523 79.3672 113.664 79.5859 113.773 79.8047C113.898 80.0234 114 80.2656 114.078 80.5312C114.172 80.7969 114.25 81.0938 114.312 81.4219C114.375 81.75 114.438 82.125 114.5 82.5469H106.273C106.305 83.4062 106.375 84.1172 106.484 84.6797C106.609 85.2266 106.805 85.7578 107.07 86.2734C107.836 87.7109 108.961 88.4297 110.445 88.4297C111.305 88.4297 112.047 88.2188 112.672 87.7969C113.312 87.375 113.953 86.6562 114.594 85.6406L115.016 85.8047ZM111.781 81.6562C111.609 80.5 111.328 79.7031 110.938 79.2656C110.562 78.8125 109.969 78.5859 109.156 78.5859C108.328 78.5859 107.68 78.8281 107.211 79.3125C106.758 79.7969 106.461 80.5781 106.32 81.6562H111.781ZM115.742 79.1719C116.133 79.0312 116.492 78.9062 116.82 78.7969C117.148 78.6719 117.461 78.5547 117.758 78.4453C118.07 78.3203 118.375 78.2031 118.672 78.0938C118.984 77.9688 119.32 77.8359 119.68 77.6953L119.844 77.7422V80.2031C120.172 79.7188 120.469 79.3203 120.734 79.0078C121 78.6797 121.258 78.4219 121.508 78.2344C121.758 78.0312 122 77.8906 122.234 77.8125C122.484 77.7344 122.75 77.6953 123.031 77.6953C123.484 77.6953 123.844 77.8281 124.109 78.0938C124.375 78.3438 124.508 78.6797 124.508 79.1016C124.508 79.4922 124.414 79.7969 124.227 80.0156C124.039 80.2188 123.789 80.3203 123.477 80.3203C123.305 80.3203 123.133 80.2891 122.961 80.2266C122.805 80.1484 122.617 80 122.398 79.7812C122.258 79.6562 122.125 79.5625 122 79.5C121.875 79.4375 121.773 79.4062 121.695 79.4062C121.508 79.4062 121.305 79.4844 121.086 79.6406C120.883 79.7812 120.688 79.9609 120.5 80.1797C120.312 80.3984 120.156 80.6328 120.031 80.8828C119.906 81.1328 119.844 81.3672 119.844 81.5859V87.6094C119.844 87.9844 119.875 88.2969 119.938 88.5469C120 88.7969 120.117 89 120.289 89.1562C120.461 89.2969 120.695 89.4062 120.992 89.4844C121.289 89.5625 121.664 89.6094 122.117 89.625V90H115.672V89.625C116.094 89.5469 116.43 89.4688 116.68 89.3906C116.945 89.2969 117.141 89.1875 117.266 89.0625C117.406 88.9375 117.492 88.7734 117.523 88.5703C117.57 88.3516 117.594 88.0781 117.594 87.75V81.0703C117.594 80.4766 117.523 80.0625 117.383 79.8281C117.242 79.5781 117.008 79.4531 116.68 79.4531C116.508 79.4531 116.352 79.4609 116.211 79.4766C116.086 79.4922 115.93 79.5234 115.742 79.5703V79.1719ZM135.828 85.8047C135.266 87.2734 134.5 88.3828 133.531 89.1328C132.578 89.8828 131.453 90.2578 130.156 90.2578C129.391 90.2578 128.695 90.1172 128.07 89.8359C127.461 89.5547 126.938 89.1562 126.5 88.6406C126.062 88.125 125.727 87.5 125.492 86.7656C125.258 86.0312 125.141 85.2031 125.141 84.2812C125.141 83.2969 125.273 82.3984 125.539 81.5859C125.82 80.7734 126.203 80.0781 126.688 79.5C127.188 78.9062 127.781 78.4453 128.469 78.1172C129.156 77.7891 129.914 77.625 130.742 77.625C131.445 77.625 132.086 77.7578 132.664 78.0234C133.258 78.2891 133.758 78.6641 134.164 79.1484C134.336 79.3672 134.477 79.5859 134.586 79.8047C134.711 80.0234 134.812 80.2656 134.891 80.5312C134.984 80.7969 135.062 81.0938 135.125 81.4219C135.188 81.75 135.25 82.125 135.312 82.5469H127.086C127.117 83.4062 127.188 84.1172 127.297 84.6797C127.422 85.2266 127.617 85.7578 127.883 86.2734C128.648 87.7109 129.773 88.4297 131.258 88.4297C132.117 88.4297 132.859 88.2188 133.484 87.7969C134.125 87.375 134.766 86.6562 135.406 85.6406L135.828 85.8047ZM132.594 81.6562C132.422 80.5 132.141 79.7031 131.75 79.2656C131.375 78.8125 130.781 78.5859 129.969 78.5859C129.141 78.5859 128.492 78.8281 128.023 79.3125C127.57 79.7969 127.273 80.5781 127.133 81.6562H132.594ZM141.148 77.7656V87.2812C141.148 87.7656 141.164 88.1562 141.195 88.4531C141.242 88.7344 141.336 88.9609 141.477 89.1328C141.617 89.2891 141.812 89.3984 142.062 89.4609C142.328 89.5234 142.688 89.5781 143.141 89.625V90H136.789V89.625C137.258 89.5938 137.625 89.5469 137.891 89.4844C138.172 89.4062 138.383 89.2891 138.523 89.1328C138.68 88.9609 138.781 88.7344 138.828 88.4531C138.875 88.1562 138.898 87.7656 138.898 87.2812V81.0703C138.898 80.4766 138.828 80.0625 138.688 79.8281C138.562 79.5781 138.344 79.4531 138.031 79.4531C137.906 79.4531 137.758 79.4609 137.586 79.4766C137.43 79.4922 137.266 79.5156 137.094 79.5469L136.906 79.5703V79.1719L141.031 77.6953L141.148 77.7656ZM139.812 71.7188C140.188 71.7188 140.508 71.8594 140.773 72.1406C141.039 72.4062 141.172 72.7266 141.172 73.1016C141.172 73.4922 141.039 73.8203 140.773 74.0859C140.523 74.3359 140.195 74.4609 139.789 74.4609C139.398 74.4609 139.078 74.3359 138.828 74.0859C138.578 73.8203 138.453 73.4922 138.453 73.1016C138.453 72.7266 138.586 72.4062 138.852 72.1406C139.117 71.8594 139.438 71.7188 139.812 71.7188ZM144.008 79.1719C144.398 79.0312 144.758 78.9062 145.086 78.7969C145.414 78.6719 145.727 78.5547 146.023 78.4453C146.336 78.3203 146.641 78.2031 146.938 78.0938C147.25 77.9688 147.586 77.8359 147.945 77.6953L148.109 77.7422V80.2031C148.438 79.7188 148.734 79.3203 149 79.0078C149.266 78.6797 149.523 78.4219 149.773 78.2344C150.023 78.0312 150.266 77.8906 150.5 77.8125C150.75 77.7344 151.016 77.6953 151.297 77.6953C151.75 77.6953 152.109 77.8281 152.375 78.0938C152.641 78.3438 152.773 78.6797 152.773 79.1016C152.773 79.4922 152.68 79.7969 152.492 80.0156C152.305 80.2188 152.055 80.3203 151.742 80.3203C151.57 80.3203 151.398 80.2891 151.227 80.2266C151.07 80.1484 150.883 80 150.664 79.7812C150.523 79.6562 150.391 79.5625 150.266 79.5C150.141 79.4375 150.039 79.4062 149.961 79.4062C149.773 79.4062 149.57 79.4844 149.352 79.6406C149.148 79.7812 148.953 79.9609 148.766 80.1797C148.578 80.3984 148.422 80.6328 148.297 80.8828C148.172 81.1328 148.109 81.3672 148.109 81.5859V87.6094C148.109 87.9844 148.141 88.2969 148.203 88.5469C148.266 88.7969 148.383 89 148.555 89.1562C148.727 89.2969 148.961 89.4062 149.258 89.4844C149.555 89.5625 149.93 89.6094 150.383 89.625V90H143.938V89.625C144.359 89.5469 144.695 89.4688 144.945 89.3906C145.211 89.2969 145.406 89.1875 145.531 89.0625C145.672 88.9375 145.758 88.7734 145.789 88.5703C145.836 88.3516 145.859 88.0781 145.859 87.75V81.0703C145.859 80.4766 145.789 80.0625 145.648 79.8281C145.508 79.5781 145.273 79.4531 144.945 79.4531C144.773 79.4531 144.617 79.4609 144.477 79.4766C144.352 79.4922 144.195 79.5234 144.008 79.5703V79.1719ZM162.594 87.1875C162.594 87.7812 162.648 88.1953 162.758 88.4297C162.867 88.6484 163.078 88.7578 163.391 88.7578C163.75 88.7578 164.141 88.5938 164.562 88.2656V88.9453C164.109 89.4453 163.711 89.7891 163.367 89.9766C163.023 90.1641 162.625 90.2578 162.172 90.2578C161.625 90.2578 161.219 90.1094 160.953 89.8125C160.703 89.5 160.547 88.9844 160.484 88.2656C159.672 88.9688 158.961 89.4766 158.352 89.7891C157.742 90.1016 157.148 90.2578 156.57 90.2578C155.727 90.2578 155.039 89.9922 154.508 89.4609C153.992 88.9297 153.734 88.2422 153.734 87.3984C153.734 86.9766 153.812 86.5547 153.969 86.1328C154.141 85.6953 154.383 85.3438 154.695 85.0781C154.977 84.8281 155.234 84.6172 155.469 84.4453C155.719 84.2578 156.039 84.0703 156.43 83.8828C156.82 83.6797 157.328 83.4531 157.953 83.2031C158.578 82.9531 159.406 82.6172 160.438 82.1953V80.4844C160.438 79.75 160.258 79.1953 159.898 78.8203C159.555 78.4453 159.055 78.2578 158.398 78.2578C157.852 78.2578 157.391 78.3906 157.016 78.6562C156.656 78.9062 156.477 79.2109 156.477 79.5703C156.477 79.7109 156.492 79.8906 156.523 80.1094C156.57 80.3281 156.594 80.5078 156.594 80.6484C156.594 80.9609 156.469 81.2266 156.219 81.4453C155.984 81.6641 155.711 81.7734 155.398 81.7734C155.086 81.7734 154.812 81.6641 154.578 81.4453C154.359 81.2109 154.25 80.9375 154.25 80.625C154.25 80.2812 154.344 79.9297 154.531 79.5703C154.734 79.2109 155.008 78.8906 155.352 78.6094C155.711 78.2969 156.188 78.0547 156.781 77.8828C157.391 77.7109 158.047 77.625 158.75 77.625C159.562 77.625 160.242 77.7656 160.789 78.0469C161.352 78.3125 161.781 78.6875 162.078 79.1719C162.266 79.4844 162.398 79.8516 162.477 80.2734C162.555 80.6797 162.594 81.2344 162.594 81.9375V87.1875ZM160.438 82.8516C159.625 83.1484 158.93 83.4375 158.352 83.7188C157.789 83.9844 157.328 84.2656 156.969 84.5625C156.625 84.8438 156.375 85.1484 156.219 85.4766C156.062 85.8047 155.984 86.1641 155.984 86.5547V86.6719C155.984 86.9531 156.031 87.2266 156.125 87.4922C156.219 87.7422 156.344 87.9609 156.5 88.1484C156.672 88.3359 156.867 88.4844 157.086 88.5938C157.305 88.7031 157.531 88.7578 157.766 88.7578C158.047 88.7578 158.359 88.7031 158.703 88.5938C159.062 88.4688 159.398 88.3203 159.711 88.1484C160.023 87.9766 160.219 87.7969 160.297 87.6094C160.391 87.4219 160.438 87.125 160.438 86.7188V82.8516Z" fill="#8D939F"/>
</svg>
