<svg width="180" height="120" viewBox="0 0 180 120" fill="none" xmlns="http://www.w3.org/2000/svg">
<path d="M20.4 68V51.2H22.704V66.128H28.56V68H20.4ZM30.4847 61.64C30.4847 60.536 30.6287 59.568 30.9167 58.736C31.2207 57.888 31.6287 57.184 32.1407 56.624C32.6527 56.048 33.2607 55.624 33.9647 55.352C34.6847 55.064 35.4527 54.92 36.2687 54.92C37.0847 54.92 37.8447 55.064 38.5487 55.352C39.2687 55.624 39.8847 56.048 40.3967 56.624C40.9247 57.184 41.3327 57.888 41.6207 58.736C41.9247 59.568 42.0767 60.536 42.0767 61.64C42.0767 62.744 41.9247 63.72 41.6207 64.568C41.3327 65.4 40.9247 66.104 40.3967 66.68C39.8847 67.24 39.2687 67.664 38.5487 67.952C37.8447 68.224 37.0847 68.36 36.2687 68.36C35.4527 68.36 34.6847 68.224 33.9647 67.952C33.2607 67.664 32.6527 67.24 32.1407 66.68C31.6287 66.104 31.2207 65.4 30.9167 64.568C30.6287 63.72 30.4847 62.744 30.4847 61.64ZM32.8847 61.64C32.8847 63.288 33.1967 64.512 33.8207 65.312C34.4607 66.096 35.2767 66.488 36.2687 66.488C37.2767 66.488 38.0927 66.096 38.7167 65.312C39.3567 64.512 39.6767 63.288 39.6767 61.64C39.6767 59.992 39.3567 58.776 38.7167 57.992C38.0927 57.192 37.2767 56.792 36.2687 56.792C35.2767 56.792 34.4607 57.192 33.8207 57.992C33.1967 58.776 32.8847 59.992 32.8847 61.64ZM52.4458 66.32C52.9898 66.32 53.5098 66.384 54.0058 66.512C54.5018 66.624 54.9418 66.816 55.3258 67.088C55.7098 67.36 56.0138 67.712 56.2378 68.144C56.4618 68.576 56.5738 69.104 56.5738 69.728C56.5738 70.96 56.0858 71.92 55.1098 72.608C54.1338 73.296 52.6858 73.64 50.7658 73.64C46.8938 73.64 44.9578 72.416 44.9578 69.968C44.9578 69.424 45.1178 68.92 45.4378 68.456C45.7578 67.992 46.1818 67.616 46.7098 67.328C46.1338 66.8 45.8458 66.072 45.8458 65.144C45.8458 64.664 45.9418 64.208 46.1338 63.776C46.3258 63.344 46.6298 62.968 47.0458 62.648C46.2938 61.848 45.9178 60.808 45.9178 59.528C45.9178 58.808 46.0378 58.16 46.2778 57.584C46.5338 57.008 46.8778 56.528 47.3098 56.144C47.7418 55.744 48.2538 55.44 48.8458 55.232C49.4378 55.024 50.0858 54.92 50.7898 54.92C51.5738 54.92 52.3018 55.056 52.9738 55.328C53.3418 55.312 53.6618 55.152 53.9338 54.848C54.2058 54.544 54.3418 53.984 54.3418 53.168H54.8218L56.2138 53.648C56.2138 54.48 56.0618 55.112 55.7578 55.544C55.4698 55.96 55.0698 56.256 54.5578 56.432C54.9098 56.816 55.1818 57.272 55.3738 57.8C55.5818 58.312 55.6858 58.888 55.6858 59.528C55.6858 60.248 55.5578 60.896 55.3018 61.472C55.0618 62.032 54.7178 62.512 54.2698 62.912C53.8378 63.296 53.3178 63.592 52.7098 63.8C52.1178 64.008 51.4778 64.112 50.7898 64.112C49.7978 64.112 48.9338 63.92 48.1978 63.536C48.0058 63.712 47.8538 63.928 47.7418 64.184C47.6458 64.424 47.5978 64.672 47.5978 64.928C47.5978 65.328 47.7338 65.664 48.0058 65.936C48.2778 66.192 48.7018 66.32 49.2778 66.32H52.4458ZM48.1258 59.528C48.1258 60.04 48.2058 60.488 48.3658 60.872C48.5258 61.24 48.7258 61.544 48.9658 61.784C49.2218 62.024 49.5098 62.2 49.8298 62.312C50.1498 62.424 50.4698 62.48 50.7898 62.48C51.1098 62.48 51.4298 62.424 51.7498 62.312C52.0698 62.2 52.3578 62.024 52.6138 61.784C52.8698 61.544 53.0778 61.24 53.2378 60.872C53.3978 60.488 53.4778 60.04 53.4778 59.528C53.4778 59 53.3978 58.552 53.2378 58.184C53.0778 57.8 52.8698 57.488 52.6138 57.248C52.3578 57.008 52.0698 56.832 51.7498 56.72C51.4298 56.608 51.1098 56.552 50.7898 56.552C50.4698 56.552 50.1498 56.608 49.8298 56.72C49.5098 56.832 49.2218 57.008 48.9658 57.248C48.7258 57.488 48.5258 57.8 48.3658 58.184C48.2058 58.552 48.1258 59 48.1258 59.528ZM49.4698 68.192C48.9258 68.192 48.4218 68.128 47.9578 68C47.7338 68.24 47.5258 68.512 47.3338 68.816C47.1578 69.136 47.0698 69.48 47.0698 69.848C47.0698 71.192 48.3018 71.864 50.7658 71.864C52.0138 71.864 52.9418 71.696 53.5498 71.36C54.1578 71.04 54.4618 70.504 54.4618 69.752C54.4618 69.416 54.3898 69.144 54.2458 68.936C54.1178 68.744 53.9498 68.592 53.7418 68.48C53.5498 68.368 53.3258 68.288 53.0698 68.24C52.8298 68.208 52.5898 68.192 52.3498 68.192H49.4698ZM68.4201 51.2V53.072H64.0041V68H61.7001V53.072H57.2841V51.2H68.4201ZM71.0706 55.28L71.1906 56.84C71.6866 56.28 72.2786 55.832 72.9666 55.496C73.6546 55.144 74.3826 54.952 75.1506 54.92L75.2706 56.648L74.9826 56.912C74.2306 56.928 73.5506 57.064 72.9426 57.32C72.3506 57.56 71.8466 57.896 71.4306 58.328V68H69.1266V55.28H71.0706ZM81.9242 56.792C80.5802 56.792 79.7082 57.456 79.3082 58.784L77.3162 58.112C77.9562 55.984 79.4922 54.92 81.9242 54.92C83.6042 54.92 84.8122 55.344 85.5482 56.192C86.3002 57.024 86.6762 58.392 86.6762 60.296V65.96C86.6762 66.216 86.7322 66.392 86.8442 66.488C86.9722 66.568 87.1242 66.608 87.3002 66.608C87.4282 66.608 87.5642 66.592 87.7082 66.56C87.8522 66.512 87.9882 66.456 88.1162 66.392L88.5002 67.88C88.2442 68.008 87.9642 68.12 87.6602 68.216C87.3562 68.312 87.0202 68.36 86.6522 68.36C86.0762 68.36 85.5882 68.224 85.1882 67.952C84.8042 67.664 84.5722 67.12 84.4922 66.32C84.2522 66.576 83.9802 66.832 83.6762 67.088C83.3722 67.328 83.0362 67.544 82.6682 67.736C82.3162 67.928 81.9322 68.08 81.5162 68.192C81.1162 68.304 80.6922 68.36 80.2442 68.36C79.7642 68.36 79.3082 68.264 78.8762 68.072C78.4602 67.896 78.1002 67.648 77.7962 67.328C77.4922 67.008 77.2522 66.632 77.0762 66.2C76.9002 65.752 76.8122 65.272 76.8122 64.76C76.8122 63.448 77.2522 62.424 78.1322 61.688C79.0282 60.952 80.2602 60.584 81.8282 60.584C82.2602 60.584 82.6922 60.616 83.1242 60.68C83.5562 60.744 83.9722 60.84 84.3722 60.968V59.456C84.3722 58.624 84.1562 57.976 83.7242 57.512C83.2922 57.032 82.6922 56.792 81.9242 56.792ZM80.9402 66.488C81.5482 66.488 82.1402 66.344 82.7162 66.056C83.3082 65.752 83.8602 65.344 84.3722 64.832V62.504C84.0362 62.392 83.6762 62.304 83.2922 62.24C82.9082 62.176 82.5322 62.144 82.1642 62.144C81.7642 62.144 81.3802 62.184 81.0122 62.264C80.6442 62.344 80.3162 62.48 80.0282 62.672C79.7562 62.864 79.5322 63.12 79.3562 63.44C79.1962 63.744 79.1162 64.12 79.1162 64.568C79.1162 65.096 79.2842 65.552 79.6202 65.936C79.9562 66.304 80.3962 66.488 80.9402 66.488ZM93.4534 55.28L93.5734 56.816C94.0694 56.32 94.6534 55.88 95.3254 55.496C95.9974 55.112 96.7494 54.92 97.5814 54.92C98.3334 54.92 98.9734 55.008 99.5014 55.184C100.029 55.36 100.453 55.64 100.773 56.024C101.109 56.392 101.349 56.88 101.493 57.488C101.653 58.096 101.733 58.832 101.733 59.696V68H99.4294V59.456C99.4294 57.68 98.6214 56.792 97.0054 56.792C96.4454 56.792 95.8934 56.92 95.3494 57.176C94.8054 57.432 94.2934 57.784 93.8134 58.232V68H91.5094V55.28H93.4534ZM110.042 56.672C109.434 56.672 108.922 56.808 108.506 57.08C108.09 57.352 107.882 57.768 107.882 58.328C107.882 58.776 108.042 59.152 108.362 59.456C108.682 59.744 109.082 60.008 109.562 60.248C110.042 60.488 110.554 60.728 111.098 60.968C111.658 61.208 112.178 61.496 112.658 61.832C113.138 62.152 113.538 62.552 113.858 63.032C114.178 63.496 114.338 64.088 114.338 64.808C114.338 65.88 113.946 66.744 113.162 67.4C112.378 68.04 111.29 68.36 109.898 68.36C108.522 68.36 107.466 68.04 106.73 67.4C106.01 66.744 105.514 65.84 105.242 64.688L107.234 64.016C107.314 64.544 107.442 64.976 107.618 65.312C107.81 65.648 108.034 65.912 108.29 66.104C108.546 66.296 108.826 66.432 109.13 66.512C109.434 66.576 109.746 66.608 110.066 66.608C110.61 66.608 111.09 66.48 111.506 66.224C111.922 65.952 112.13 65.536 112.13 64.976C112.13 64.56 111.97 64.216 111.65 63.944C111.33 63.672 110.93 63.416 110.45 63.176C109.97 62.936 109.45 62.696 108.89 62.456C108.346 62.2 107.834 61.896 107.354 61.544C106.874 61.192 106.474 60.768 106.154 60.272C105.834 59.76 105.674 59.128 105.674 58.376C105.674 58.008 105.746 57.624 105.89 57.224C106.034 56.808 106.274 56.432 106.61 56.096C106.962 55.76 107.418 55.48 107.978 55.256C108.554 55.032 109.258 54.92 110.09 54.92C111.194 54.92 112.106 55.168 112.826 55.664C113.562 56.144 114.09 56.96 114.41 58.112L112.418 58.784C112.242 58.128 111.954 57.616 111.554 57.248C111.154 56.864 110.65 56.672 110.042 56.672ZM117.97 55.28H119.914L120.034 56.768C120.498 56.288 121.05 55.864 121.69 55.496C122.346 55.112 123.122 54.92 124.018 54.92C124.754 54.92 125.418 55.064 126.01 55.352C126.618 55.624 127.13 56.048 127.546 56.624C127.978 57.184 128.306 57.888 128.53 58.736C128.77 59.568 128.89 60.536 128.89 61.64C128.89 62.744 128.746 63.72 128.458 64.568C128.17 65.4 127.778 66.104 127.282 66.68C126.786 67.24 126.202 67.664 125.53 67.952C124.858 68.224 124.138 68.36 123.37 68.36C122.778 68.36 122.218 68.272 121.69 68.096C121.178 67.92 120.706 67.68 120.274 67.376V73.64H117.97V55.28ZM123.514 56.792C122.874 56.792 122.282 56.92 121.738 57.176C121.21 57.432 120.722 57.776 120.274 58.208V65.48C120.642 65.768 121.082 66.008 121.594 66.2C122.106 66.392 122.666 66.488 123.274 66.488C124.218 66.488 124.986 66.096 125.578 65.312C126.186 64.512 126.49 63.288 126.49 61.64C126.49 59.992 126.21 58.776 125.65 57.992C125.106 57.192 124.394 56.792 123.514 56.792Z" fill="#8D939F"/>
<path d="M133 56H152.5M135.5 61.5135H163M133 68H157.5" stroke="#8D939F"/>
</svg>
