<svg width="180" height="120" viewBox="0 0 180 120" fill="none" xmlns="http://www.w3.org/2000/svg">
<path d="M18.5516 70.288C17.5276 70.288 16.6476 70.096 15.9116 69.712C15.1756 69.312 14.5676 68.744 14.0876 68.008C13.6076 67.272 13.2556 66.368 13.0316 65.296C12.8076 64.224 12.6956 63 12.6956 61.624C12.6956 60.264 12.8076 59.048 13.0316 57.976C13.2556 56.888 13.6076 55.976 14.0876 55.24C14.5676 54.504 15.1756 53.944 15.9116 53.56C16.6476 53.16 17.5276 52.96 18.5516 52.96C19.5756 52.96 20.4556 53.16 21.1916 53.56C21.9276 53.944 22.5356 54.504 23.0156 55.24C23.4956 55.976 23.8476 56.888 24.0716 57.976C24.2956 59.048 24.4076 60.264 24.4076 61.624C24.4076 63 24.2956 64.224 24.0716 65.296C23.8476 66.368 23.4956 67.272 23.0156 68.008C22.5356 68.744 21.9276 69.312 21.1916 69.712C20.4556 70.096 19.5756 70.288 18.5516 70.288ZM18.5516 68.536C19.2236 68.536 19.7916 68.408 20.2556 68.152C20.7196 67.88 21.1036 67.504 21.4076 67.024C21.7116 66.544 21.9276 65.968 22.0556 65.296C22.1996 64.608 22.2716 63.84 22.2716 62.992V60.256C22.2716 59.424 22.1996 58.664 22.0556 57.976C21.9276 57.288 21.7116 56.704 21.4076 56.224C21.1036 55.744 20.7196 55.376 20.2556 55.12C19.7916 54.848 19.2236 54.712 18.5516 54.712C17.8796 54.712 17.3116 54.848 16.8476 55.12C16.3836 55.376 15.9996 55.744 15.6956 56.224C15.3916 56.704 15.1676 57.288 15.0236 57.976C14.8956 58.664 14.8316 59.424 14.8316 60.256V62.992C14.8316 63.84 14.8956 64.608 15.0236 65.296C15.1676 65.968 15.3916 66.544 15.6956 67.024C15.9996 67.504 16.3836 67.88 16.8476 68.152C17.3116 68.408 17.8796 68.536 18.5516 68.536ZM31.7182 70L27.2782 57.616H29.2222L30.9982 62.8L32.9182 68.392H33.0142L34.9342 62.8L36.7102 57.616H38.6062L34.1662 70H31.7182ZM47.5488 70.288C46.6528 70.288 45.8448 70.136 45.1248 69.832C44.4208 69.528 43.8128 69.096 43.3008 68.536C42.8048 67.96 42.4208 67.28 42.1488 66.496C41.8768 65.696 41.7408 64.808 41.7408 63.832C41.7408 62.84 41.8768 61.944 42.1488 61.144C42.4368 60.344 42.8288 59.664 43.3248 59.104C43.8208 58.528 44.4128 58.088 45.1008 57.784C45.8048 57.48 46.5808 57.328 47.4288 57.328C48.2608 57.328 49.0128 57.48 49.6848 57.784C50.3728 58.088 50.9568 58.512 51.4368 59.056C51.9168 59.584 52.2848 60.216 52.5408 60.952C52.7968 61.688 52.9248 62.496 52.9248 63.376V64.288H43.7568V64.864C43.7568 65.408 43.8448 65.912 44.0208 66.376C44.1968 66.84 44.4448 67.24 44.7648 67.576C45.1008 67.912 45.5008 68.176 45.9648 68.368C46.4448 68.544 46.9728 68.632 47.5488 68.632C48.3808 68.632 49.1008 68.44 49.7088 68.056C50.3168 67.672 50.7808 67.144 51.1008 66.472L52.5168 67.432C52.1488 68.264 51.5328 68.952 50.6688 69.496C49.8208 70.024 48.7808 70.288 47.5488 70.288ZM47.4288 58.912C46.9008 58.912 46.4128 59.008 45.9648 59.2C45.5168 59.392 45.1248 59.656 44.7888 59.992C44.4688 60.328 44.2128 60.728 44.0208 61.192C43.8448 61.64 43.7568 62.136 43.7568 62.68V62.848H50.8608V62.584C50.8608 62.04 50.7728 61.544 50.5968 61.096C50.4368 60.648 50.2048 60.264 49.9008 59.944C49.6128 59.608 49.2528 59.352 48.8208 59.176C48.4048 59 47.9408 58.912 47.4288 58.912ZM56.3714 68.368H59.9954V59.248H56.3714V57.616H61.9154V60.736H62.0354C62.2914 59.76 62.7714 59 63.4754 58.456C64.1954 57.896 65.1074 57.616 66.2114 57.616H67.9394V59.536H65.6114C64.5074 59.536 63.6114 59.856 62.9234 60.496C62.2514 61.136 61.9154 61.976 61.9154 63.016V68.368H66.7154V70H56.3714V68.368ZM80.7941 70C80.0421 70 79.5061 69.808 79.1861 69.424C78.8661 69.04 78.6661 68.56 78.5861 67.984H78.4661C78.1941 68.704 77.7541 69.272 77.1461 69.688C76.5541 70.088 75.7541 70.288 74.7461 70.288C73.4501 70.288 72.4181 69.952 71.6501 69.28C70.8821 68.608 70.4981 67.688 70.4981 66.52C70.4981 65.368 70.9141 64.48 71.7461 63.856C72.5941 63.232 73.9541 62.92 75.8261 62.92H78.4661V61.696C78.4661 60.784 78.2101 60.104 77.6981 59.656C77.1861 59.192 76.4581 58.96 75.5141 58.96C74.6821 58.96 74.0021 59.128 73.4741 59.464C72.9461 59.784 72.5221 60.224 72.2021 60.784L70.9061 59.824C71.0661 59.504 71.2821 59.192 71.5541 58.888C71.8261 58.584 72.1621 58.32 72.5621 58.096C72.9621 57.856 73.4181 57.672 73.9301 57.544C74.4421 57.4 75.0101 57.328 75.6341 57.328C77.0901 57.328 78.2421 57.696 79.0901 58.432C79.9541 59.168 80.3861 60.192 80.3861 61.504V68.32H82.1141V70H80.7941ZM75.0821 68.68C75.5781 68.68 76.0261 68.624 76.4261 68.512C76.8421 68.384 77.2021 68.224 77.5061 68.032C77.8101 67.824 78.0421 67.584 78.2021 67.312C78.3781 67.024 78.4661 66.72 78.4661 66.4V64.36H75.8261C74.6741 64.36 73.8341 64.52 73.3061 64.84C72.7781 65.16 72.5141 65.624 72.5141 66.232V66.736C72.5141 67.376 72.7381 67.864 73.1861 68.2C73.6501 68.52 74.2821 68.68 75.0821 68.68ZM85.2247 68.368H89.5447V53.872H85.2247V52.24H91.4647V68.368H95.7847V70H85.2247V68.368ZM99.6153 68.368H103.935V53.872H99.6153V52.24H105.855V68.368H110.175V70H99.6153V68.368ZM128.637 70V53.248H139.197V55H130.653V60.64H138.477V62.392H130.653V70H128.637ZM148.835 54.88C148.275 54.88 147.883 54.768 147.659 54.544C147.435 54.304 147.323 54.008 147.323 53.656V53.272C147.323 52.92 147.435 52.632 147.659 52.408C147.883 52.168 148.275 52.048 148.835 52.048C149.395 52.048 149.787 52.168 150.011 52.408C150.235 52.632 150.347 52.92 150.347 53.272V53.656C150.347 54.008 150.235 54.304 150.011 54.544C149.787 54.768 149.395 54.88 148.835 54.88ZM143.411 68.368H147.875V59.248H143.411V57.616H149.795V68.368H153.971V70H143.411V68.368ZM163.058 70C162.114 70 161.418 69.736 160.97 69.208C160.538 68.68 160.322 68 160.322 67.168V59.248H156.194V57.616H159.266C159.682 57.616 159.97 57.536 160.13 57.376C160.306 57.2 160.394 56.904 160.394 56.488V53.248H162.242V57.616H167.882V59.248H162.242V68.368H167.882V70H163.058Z" fill="#8D939F"/>
</svg>
