<svg width="180" height="120" viewBox="0 0 180 120" fill="none" xmlns="http://www.w3.org/2000/svg">
<path d="M35 55L90 40" stroke="#8D939F" stroke-width="2"/>
<path d="M145 55L90 40" stroke="#8D939F" stroke-width="2"/>
<path d="M43.032 72.088C43.032 71.448 42.824 70.92 42.408 70.504C41.992 70.088 41.472 69.72 40.848 69.4C40.24 69.08 39.568 68.768 38.832 68.464C38.112 68.16 37.44 67.792 36.816 67.36C36.208 66.928 35.696 66.4 35.28 65.776C34.864 65.136 34.656 64.328 34.656 63.352C34.656 62.872 34.744 62.368 34.92 61.84C35.112 61.312 35.416 60.824 35.832 60.376C36.248 59.928 36.792 59.56 37.464 59.272C38.152 58.984 39 58.84 40.008 58.84C41.336 58.84 42.44 59.128 43.32 59.704C44.216 60.264 44.856 61.192 45.24 62.488L43.152 63.232C42.88 62.448 42.456 61.832 41.88 61.384C41.304 60.936 40.576 60.712 39.696 60.712C38.88 60.712 38.216 60.928 37.704 61.36C37.208 61.792 36.96 62.392 36.96 63.16C36.96 63.816 37.168 64.36 37.584 64.792C38 65.208 38.512 65.584 39.12 65.92C39.744 66.24 40.416 66.552 41.136 66.856C41.872 67.16 42.544 67.52 43.152 67.936C43.776 68.336 44.296 68.832 44.712 69.424C45.128 70 45.336 70.736 45.336 71.632C45.336 72.128 45.24 72.656 45.048 73.216C44.856 73.76 44.544 74.272 44.112 74.752C43.68 75.216 43.104 75.6 42.384 75.904C41.68 76.208 40.8 76.36 39.744 76.36C38.32 76.36 37.128 76.016 36.168 75.328C35.224 74.624 34.552 73.48 34.152 71.896L36.216 71.152C36.776 73.376 38.024 74.488 39.96 74.488C40.856 74.488 41.592 74.264 42.168 73.816C42.744 73.352 43.032 72.776 43.032 72.088ZM48.2738 69.64C48.2738 68.536 48.4178 67.568 48.7058 66.736C49.0098 65.888 49.4178 65.184 49.9298 64.624C50.4418 64.048 51.0498 63.624 51.7538 63.352C52.4738 63.064 53.2418 62.92 54.0578 62.92C54.8738 62.92 55.6338 63.064 56.3378 63.352C57.0578 63.624 57.6738 64.048 58.1858 64.624C58.7138 65.184 59.1218 65.888 59.4098 66.736C59.7138 67.568 59.8658 68.536 59.8658 69.64C59.8658 70.744 59.7138 71.72 59.4098 72.568C59.1218 73.4 58.7138 74.104 58.1858 74.68C57.6738 75.24 57.0578 75.664 56.3378 75.952C55.6338 76.224 54.8738 76.36 54.0578 76.36C53.2418 76.36 52.4738 76.224 51.7538 75.952C51.0498 75.664 50.4418 75.24 49.9298 74.68C49.4178 74.104 49.0098 73.4 48.7058 72.568C48.4178 71.72 48.2738 70.744 48.2738 69.64ZM50.6738 69.64C50.6738 71.288 50.9858 72.512 51.6098 73.312C52.2498 74.096 53.0658 74.488 54.0578 74.488C55.0658 74.488 55.8818 74.096 56.5058 73.312C57.1458 72.512 57.4658 71.288 57.4658 69.64C57.4658 67.992 57.1458 66.776 56.5058 65.992C55.8818 65.192 55.0658 64.792 54.0578 64.792C53.0658 64.792 52.2498 65.192 51.6098 65.992C50.9858 66.776 50.6738 67.992 50.6738 69.64ZM62.8669 63.28H64.6909V61.816C64.6909 60.312 65.0109 59.24 65.6509 58.6C66.3069 57.96 67.2509 57.64 68.4829 57.64C69.2989 57.64 69.9789 57.808 70.5229 58.144C71.0829 58.48 71.5389 59.12 71.8909 60.064L69.9709 60.712C69.8269 60.328 69.6429 60.032 69.4189 59.824C69.1949 59.616 68.8749 59.512 68.4589 59.512C67.9789 59.512 67.6109 59.68 67.3549 60.016C67.1149 60.336 66.9949 60.856 66.9949 61.576V63.28H70.1149V64.96H66.9949V76H64.6909V64.96H62.8669V63.28ZM71.9841 63.28H73.8081V60.64L75.6321 60.16H76.1121V63.28H79.4721V64.96H76.1121V73.264C76.1121 74.032 76.4881 74.416 77.2401 74.416C77.7361 74.416 78.3521 74.192 79.0881 73.744L79.7121 75.184C79.2321 75.552 78.6881 75.84 78.0801 76.048C77.4881 76.256 76.9281 76.36 76.4001 76.36C75.5521 76.36 74.9041 76.08 74.4561 75.52C74.0241 74.944 73.8081 74.112 73.8081 73.024V64.96H71.9841V63.28ZM94.2671 76H91.9631V68.536H84.9071V76H82.6031V59.2H84.9071V66.664H91.9631V59.2H94.2671V76ZM98.3363 69.64C98.3363 68.536 98.4803 67.568 98.7683 66.736C99.0723 65.888 99.4803 65.184 99.9923 64.624C100.504 64.048 101.112 63.624 101.816 63.352C102.536 63.064 103.304 62.92 104.12 62.92C104.936 62.92 105.696 63.064 106.4 63.352C107.12 63.624 107.736 64.048 108.248 64.624C108.776 65.184 109.184 65.888 109.472 66.736C109.776 67.568 109.928 68.536 109.928 69.64C109.928 70.744 109.776 71.72 109.472 72.568C109.184 73.4 108.776 74.104 108.248 74.68C107.736 75.24 107.12 75.664 106.4 75.952C105.696 76.224 104.936 76.36 104.12 76.36C103.304 76.36 102.536 76.224 101.816 75.952C101.112 75.664 100.504 75.24 99.9923 74.68C99.4803 74.104 99.0723 73.4 98.7683 72.568C98.4803 71.72 98.3363 70.744 98.3363 69.64ZM100.736 69.64C100.736 71.288 101.048 72.512 101.672 73.312C102.312 74.096 103.128 74.488 104.12 74.488C105.128 74.488 105.944 74.096 106.568 73.312C107.208 72.512 107.528 71.288 107.528 69.64C107.528 67.992 107.208 66.776 106.568 65.992C105.944 65.192 105.128 64.792 104.12 64.792C103.128 64.792 102.312 65.192 101.672 65.992C101.048 66.776 100.736 67.992 100.736 69.64ZM115.953 63.28L116.073 64.768C116.537 64.288 117.081 63.864 117.705 63.496C118.345 63.112 119.049 62.92 119.817 62.92C120.793 62.92 121.577 63.08 122.169 63.4C122.761 63.72 123.193 64.24 123.465 64.96C123.929 64.432 124.489 63.96 125.145 63.544C125.817 63.128 126.561 62.92 127.377 62.92C128.097 62.92 128.713 63.008 129.225 63.184C129.753 63.36 130.177 63.64 130.497 64.024C130.817 64.392 131.049 64.88 131.193 65.488C131.353 66.096 131.433 66.832 131.433 67.696V76H129.129V67.456C129.129 65.68 128.369 64.792 126.849 64.792C126.289 64.792 125.753 64.928 125.241 65.2C124.729 65.456 124.241 65.816 123.777 66.28C123.809 66.504 123.833 66.728 123.849 66.952C123.865 67.176 123.873 67.424 123.873 67.696V76H121.569V67.456C121.569 65.68 120.809 64.792 119.289 64.792C118.761 64.792 118.241 64.92 117.729 65.176C117.233 65.432 116.761 65.776 116.313 66.208V76H114.009V63.28H115.953ZM141.226 74.488C142.042 74.488 142.746 74.336 143.338 74.032C143.946 73.712 144.434 73.376 144.802 73.024L145.834 74.272C145.338 74.832 144.69 75.32 143.89 75.736C143.09 76.152 142.178 76.36 141.154 76.36C140.306 76.36 139.522 76.224 138.802 75.952C138.082 75.664 137.458 75.24 136.93 74.68C136.418 74.104 136.01 73.4 135.706 72.568C135.418 71.72 135.274 70.744 135.274 69.64C135.274 68.536 135.418 67.568 135.706 66.736C135.994 65.888 136.394 65.184 136.906 64.624C137.418 64.048 138.018 63.624 138.706 63.352C139.41 63.064 140.17 62.92 140.986 62.92C141.738 62.92 142.426 63.04 143.05 63.28C143.69 63.504 144.234 63.856 144.682 64.336C145.13 64.816 145.474 65.416 145.714 66.136C145.97 66.84 146.098 67.672 146.098 68.632V70.312H137.698C137.794 71.736 138.162 72.792 138.802 73.48C139.458 74.152 140.266 74.488 141.226 74.488ZM141.01 64.792C140.146 64.792 139.41 65.112 138.802 65.752C138.21 66.376 137.85 67.336 137.722 68.632H143.818C143.818 67.4 143.57 66.456 143.074 65.8C142.594 65.128 141.906 64.792 141.01 64.792Z" fill="#8D939F"/>
<rect x="89" y="38" width="2" height="2" fill="#8D939F"/>
</svg>
