<svg width="24" height="24" viewBox="0 0 24 24" fill="none" xmlns="http://www.w3.org/2000/svg">
<g clip-path="url(#clip0)">
<path d="M12.004 5.83813C8.60101 5.83813 5.84601 8.59614 5.84601 11.9961C5.84601 15.3991 8.60401 18.1541 12.004 18.1541C15.407 18.1541 18.162 15.3961 18.162 11.9961C18.162 8.59314 15.404 5.83813 12.004 5.83813ZM12.004 15.9931C9.79501 15.9931 8.00701 14.2041 8.00701 11.9961C8.00701 9.78814 9.79601 7.99914 12.004 7.99914C14.212 7.99914 16.001 9.78814 16.001 11.9961C16.002 14.2041 14.213 15.9931 12.004 15.9931Z" fill="#EFF7FD"/>
<path d="M16.948 0.0761191C14.74 -0.0268809 9.27095 -0.0218809 7.06095 0.0761191C5.11895 0.167119 3.40595 0.636119 2.02495 2.01712C-0.283047 4.32512 0.0119526 7.43512 0.0119526 11.9961C0.0119526 16.6641 -0.248047 19.7021 2.02495 21.9751C4.34195 24.2911 7.49695 23.9881 12.004 23.9881C16.628 23.9881 18.224 23.9911 19.859 23.3581C22.082 22.4951 23.76 20.5081 23.924 16.9391C24.028 14.7301 24.022 9.26212 23.924 7.05212C23.726 2.83912 21.465 0.284119 16.948 0.0761191ZM20.443 20.4481C18.93 21.9611 16.831 21.8261 11.975 21.8261C6.97495 21.8261 4.96995 21.9001 3.50695 20.4331C1.82195 18.7561 2.12695 16.0631 2.12695 11.9801C2.12695 6.45512 1.55995 2.47612 7.10495 2.19212C8.37895 2.14712 8.75395 2.13212 11.961 2.13212L12.006 2.16212C17.335 2.16212 21.516 1.60412 21.767 7.14812C21.824 8.41312 21.837 8.79312 21.837 11.9951C21.836 16.9371 21.93 18.9541 20.443 20.4481Z" fill="#EFF7FD"/>
<path d="M18.406 7.03401C19.2007 7.03401 19.845 6.38974 19.845 5.59501C19.845 4.80027 19.2007 4.15601 18.406 4.15601C17.6112 4.15601 16.967 4.80027 16.967 5.59501C16.967 6.38974 17.6112 7.03401 18.406 7.03401Z" fill="#EFF7FD"/>
</g>
<defs>
<clipPath id="clip0">
<rect width="24" height="24" fill="white"/>
</clipPath>
</defs>
</svg>
